SplineFontDB: 3.0
FontName: DejaVuBB
FullName: DejaVu BB
FamilyName: DejaVuBB
Weight: Regular
Copyright: Copyright (c) 2003 by Bitstream, Inc. All Rights Reserved.\nCopyright (c) 2006 by Tavmjong Bah. All Rights Reserved.\nDejaVu changes are in public domain.\nModified by Rogerio Theodoro de Brito to be used as a Blackboard font with TeX. Changes in public domain.\n
Version: 0.0
ItalicAngle: 0
UnderlinePosition: -85
UnderlineWidth: 90
Ascent: 1556
Descent: 492
LayerCount: 2
Layer: 0 1 "Back"  1
Layer: 1 1 "Fore"  0
NeedsXUIDChange: 1
FSType: 0
OS2Version: 0
OS2_WeightWidthSlopeOnly: 0
OS2_UseTypoMetrics: 0
CreationTime: 1318071242
ModificationTime: 1318074303
PfmFamily: 33
TTFWeight: 700
TTFWidth: 5
LineGap: 0
VLineGap: 0
OS2TypoAscent: 1556
OS2TypoAOffset: 0
OS2TypoDescent: -492
OS2TypoDOffset: 0
OS2TypoLinegap: 410
OS2WinAscent: 1901
OS2WinAOffset: 0
OS2WinDescent: 483
OS2WinDOffset: 0
HheadAscent: 1901
HheadAOffset: 0
HheadDescent: -483
HheadDOffset: 0
OS2Vendor: 'PfEd'
OS2CodePages: 600001ff.dfff0000
Lookup: 6 9 0 "Required Feature in N'Ko"  {"Required Feature in N'Ko"  } [' RQD' ('DFLT' <'dflt' > 'nko ' <'dflt' > ) ]
Lookup: 6 1 0 "'ccmp' in RTL"  {"'ccmp' in RTL"  } ['ccmp' ('arab' <'KUR ' 'SND ' 'URD ' 'dflt' > 'hebr' <'dflt' > 'nko ' <'dflt' > ) ]
Lookup: 6 0 0 "'ccmp' in Basic"  {"'ccmp' in Basic"  } ['ccmp' ('cyrl' <'MKD ' 'SRB ' 'dflt' > 'grek' <'dflt' > 'latn' <'ISM ' 'KSM ' 'LSM ' 'MOL ' 'NSM ' 'ROM ' 'SKS ' 'SSM ' 'dflt' > ) ]

StartChar: .notdef
Encoding: 0 -1 0
Width: 1229
Flags: W
LayerCount: 2
Fore
SplineSet
102 -362 m 1,0,-1
 102 1444 l 1,1,-1
 1126 1444 l 1,2,-1
 1126 -362 l 1,3,-1
 102 -362 l 1,0,-1
217 -248 m 1,4,-1
 1012 -248 l 1,5,-1
 1012 1329 l 1,6,-1
 217 1329 l 1,7,-1
 217 -248 l 1,4,-1
EndSplineSet
EndChar

StartChar: C
Encoding: 67 67 399
Width: 1430
Flags: W
AnchorPoint: "below" 844 0 basechar 0
AnchorPoint: "above" 844 1520 basechar 0 22
LayerCount: 2
Fore
SplineSet
1319 1378 m 1,0,-1
 1319 1260 l 1,1,2
 1230 1325 1230 1325 1114 1370 c 128,-1,3
 998 1415 998 1415 847 1415 c 0,4,5
 684 1415 684 1415 563 1363 c 1,6,-1
 563 128 l 1,7,8
 684 76 684 76 847 76 c 0,9,10
 998 76 998 76 1114 121 c 128,-1,11
 1230 166 1230 166 1319 232 c 1,12,-1
 1319 115 l 1,13,14
 1213 43 1213 43 1094.5 7 c 128,-1,15
 976 -29 976 -29 844 -29 c 0,16,17
 505 -29 505 -29 310 178.5 c 128,-1,18
 115 386 115 386 115 745 c 0,19,20
 115 1105 115 1105 310 1312.5 c 128,-1,21
 505 1520 505 1520 844 1520 c 0,22,23
 978 1520 978 1520 1096.5 1484.5 c 128,-1,24
 1215 1449 1215 1449 1319 1378 c 1,0,-1
458 188 m 1,25,-1
 458 1303 l 1,26,27
 423 1276 423 1276 392 1243 c 0,28,29
 235 1071 235 1071 235 745 c 0,30,31
 235 420 235 420 392 248 c 0,32,33
 423 215 423 215 458 188 c 1,25,-1
EndSplineSet
EndChar

StartChar: H
Encoding: 72 72 400
Width: 1740
Flags: W
AnchorPoint: "below" 870 0 basechar 0
AnchorPoint: "above" 870 1520 basechar 0
LayerCount: 2
Fore
SplineSet
1237 1393 m 1,0,-1
 1237 100 l 1,1,-1
 1439 100 l 1,2,-1
 1439 1393 l 1,3,-1
 1237 1393 l 1,0,-1
301 1393 m 1,4,-1
 301 100 l 1,5,-1
 503 100 l 1,6,-1
 503 1393 l 1,7,-1
 301 1393 l 1,4,-1
201 1493 m 1,8,-1
 603 1493 l 1,9,-1
 603 861 l 1,10,-1
 1137 861 l 1,11,-1
 1137 1493 l 1,12,-1
 1539 1493 l 1,13,-1
 1539 0 l 1,14,-1
 1137 0 l 1,15,-1
 1137 731 l 1,16,-1
 603 731 l 1,17,-1
 603 0 l 1,18,-1
 201 0 l 1,19,-1
 201 1493 l 1,8,-1
EndSplineSet
EndChar

StartChar: N
Encoding: 78 78 401
Width: 1640
Flags: W
AnchorPoint: "above" 820 1506 basechar 0
AnchorPoint: "below" 820 0 basechar 0
LayerCount: 2
Fore
SplineSet
1311.5 100 m 1,0,-1
 566.5 1393 l 1,1,-1
 328.5 1393 l 1,2,-1
 1073.5 100 l 1,3,-1
 1311.5 100 l 1,0,-1
198.5 1493 m 1,4,-1
 621.5 1493 l 1,5,-1
 1341.5 244 l 1,6,-1
 1341.5 1493 l 1,7,-1
 1441.5 1493 l 1,8,-1
 1441.5 0 l 1,9,-1
 1018.5 0 l 1,10,-1
 298.5 1249 l 1,11,-1
 298.5 0 l 1,12,-1
 198.5 0 l 1,13,-1
 198.5 1493 l 1,4,-1
EndSplineSet
EndChar

StartChar: P
Encoding: 80 80 402
Width: 1436
Flags: W
AnchorPoint: "below" 782 0 basechar 0
AnchorPoint: "above" 782 1520 basechar 0
LayerCount: 2
Fore
SplineSet
300 1393 m 1,0,-1
 300 100 l 1,1,-1
 502 100 l 1,2,-1
 502 1393 l 1,3,-1
 300 1393 l 1,0,-1
602 1393 m 1,4,-1
 602 731 l 1,5,-1
 904 731 l 2,6,7
 928 731 928 731 951 733 c 1,8,-1
 951 1391 l 1,9,10
 928 1393 928 1393 904 1393 c 2,11,-1
 602 1393 l 1,4,-1
200 1493 m 1,12,-1
 857 1493 l 2,13,14
 1107 1493 1107 1493 1235.5 1383.5 c 128,-1,15
 1364 1274 1364 1274 1364 1063 c 0,16,17
 1364 850 1364 850 1235.5 741 c 128,-1,18
 1107 632 1107 632 856 632 c 2,19,-1
 602 632 l 1,20,-1
 602 0 l 1,21,-1
 200 0 l 1,22,-1
 200 1493 l 1,12,-1
1056 1370 m 1,23,-1
 1056 755 l 1,24,25
 1116 777 1116 777 1161 818 c 0,26,27
 1254 904 1254 904 1254 1063 c 0,28,29
 1254 1221 1254 1221 1162 1307 c 0,30,31
 1118 1348 1118 1348 1056 1370 c 1,23,-1
EndSplineSet
EndChar

StartChar: Q
Encoding: 81 81 403
Width: 1612
Flags: W
AnchorPoint: "below" 807 0 basechar 0
AnchorPoint: "above" 807 1520 basechar 0 12
LayerCount: 2
Fore
SplineSet
1090 27 m 1,0,-1
 1356 -264 l 1,1,-1
 1112 -264 l 1,2,-1
 891 -25 l 1,3,-1
 840 -28 l 2,4,5
 823 -29 823 -29 807 -29 c 0,6,7
 492 -29 492 -29 303.5 181.5 c 128,-1,8
 115 392 115 392 115 745 c 0,9,10
 115 1099 115 1099 303.5 1309.5 c 128,-1,11
 492 1520 492 1520 807 1520 c 0,12,13
 1121 1520 1121 1520 1309 1309.5 c 128,-1,14
 1497 1099 1497 1099 1497 745 c 0,15,16
 1497 485 1497 485 1392.5 300 c 128,-1,17
 1288 115 1288 115 1090 27 c 1,0,-1
563 126 m 1,18,19
 671 76 671 76 807 76 c 128,-1,20
 943 76 943 76 1051 126 c 1,21,-1
 1051 1365 l 1,22,23
 943 1415 943 1415 807 1415 c 128,-1,24
 671 1415 671 1415 563 1365 c 1,25,-1
 563 126 l 1,18,19
458 191 m 1,26,-1
 458 1299 l 1,27,28
 422 1270 422 1270 390 1233 c 0,29,30
 235 1051 235 1051 235 745 c 128,-1,31
 235 439 235 439 390 258 c 0,32,33
 422 221 422 221 458 191 c 1,26,-1
1156 1298 m 1,34,-1
 1156 193 l 1,35,36
 1191 222 1191 222 1222 258 c 0,37,38
 1377 440 1377 440 1377 745.5 c 128,-1,40
 1377 1051 1377 1051 1222 1233 c 0,41,42
 1191 1269 1191 1269 1156 1298 c 1,34,-1
EndSplineSet
EndChar

StartChar: R
Encoding: 82 82 404
Width: 1622
Flags: W
AnchorPoint: "below" 863 0 basechar 0
AnchorPoint: "above" 863 1506 basechar 0
LayerCount: 2
Fore
SplineSet
1275 383 m 2,0,1
 1199 534 1199 534 1131 582 c 0,2,3
 1062 631 1062 631 942 631 c 10,4,-1
 897 631 l 17,5,6
 974 584 974 584 1075 383 c 2,7,-1
 1218 100 l 25,8,-1
 1417 100 l 25,9,-1
 1275 383 l 2,0,1
1153 691 m 1,10,11
 1206 666 1206 666 1262.5 600 c 128,-1,12
 1319 534 1319 534 1381 408 c 1,13,-1
 1586 0 l 1,14,-1
 1146 0 l 1,15,-1
 955 383 l 2,16,17
 881 533 881 533 811.5 582 c 128,-1,18
 742 631 742 631 622 631 c 10,19,-1
 602 631 l 17,20,-1
 602 0 l 1,21,-1
 200 0 l 1,22,-1
 200 1493 l 1,23,-1
 879 1493 l 2,24,25
 1135 1493 1135 1493 1261 1386 c 128,-1,26
 1387 1279 1387 1279 1387 1063 c 24,27,28
 1387 855 1387 855 1270 757 c 0,29,30
 1221 716 1221 716 1153 691 c 1,10,11
602 1393 m 1,31,-1
 602 731 l 1,32,-1
 927 731 l 2,33,34
 951 731 951 731 974 733 c 1,35,-1
 974 1391 l 1,36,37
 951 1393 951 1393 927 1393 c 2,38,-1
 602 1393 l 1,31,-1
1079 1370 m 1,39,-1
 1079 755 l 1,40,41
 1144 777 1144 777 1187 818 c 0,42,43
 1277 904 1277 904 1277 1063 c 128,-1,44
 1277 1222 1277 1222 1188 1307 c 0,45,46
 1146 1348 1146 1348 1079 1370 c 1,39,-1
300 1393 m 1,47,-1
 300 100 l 1,48,-1
 502 100 l 1,49,-1
 502 1393 l 1,50,-1
 300 1393 l 1,47,-1
EndSplineSet
EndChar

StartChar: Z
Encoding: 90 90 405
Width: 1525
Flags: W
AnchorPoint: "below" 762 0 basechar 0
AnchorPoint: "above" 762 1506 basechar 0
LayerCount: 2
Fore
SplineSet
456 100 m 17,0,-1
 1280 1393 l 1,1,-1
 1046 1393 l 1,2,-1
 222 100 l 9,3,-1
 456 100 l 17,0,-1
115 1493 m 1,4,-1
 1410 1493 l 1,5,-1
 1410 1393 l 1,6,-1
 586 100 l 1,7,-1
 1433 100 l 1,8,-1
 1433 0 l 1,9,-1
 92 0 l 1,10,-1
 92 100 l 1,11,-1
 916 1393 l 1,12,-1
 115 1393 l 1,13,-1
 115 1493 l 1,4,-1
EndSplineSet
EndChar

StartChar: pi
Encoding: 960 960 406
Width: 1438
Flags: W
AnchorPoint: "below" 759 0 basechar 0
AnchorPoint: "above" 759 1147 basechar 0
LayerCount: 2
Fore
SplineSet
1302 90 m 9,0,-1
 1302 142 l 17,1,2
 1165 142 1165 142 1121 206 c 0,3,4
 1095 245 1095 245 1086.5 278 c 0,5,6
 1072 334.294 1072 334.294 1072 496 c 2,7,-1
 1072 1020 l 1,8,-1
 938 1020 l 1,9,-1
 938 466 l 2,10,11
 938 299.75 938 299.75 949.5 238.875 c 128,-1,12
 961 178 961 178 981 153 c 0,13,14
 1038 84 1038 84 1150.5 84 c 128,-1,15
 1263 84 1263 84 1302 90 c 9,0,-1
1174 406 m 0,16,17
 1181.78 230.999 1181.78 230.999 1289.5 231 c 0,18,19
 1330 231 1330 231 1402 241 c 1,20,-1
 1402 0 l 1,21,22
 1286 -16 1286 -16 1154.5 -16 c 0,23,24
 901.42 -16 901.42 -16 859 186 c 0,25,26
 838 284 838 284 838 537 c 2,27,-1
 838 1020 l 1,28,-1
 671 1020 l 1,29,-1
 671 0 l 1,30,-1
 337 0 l 1,31,-1
 337 1020 l 1,32,-1
 276 1020 l 2,33,34
 186 1020 186 1020 161 982 c 128,-1,35
 136 944 136 944 136 829 c 1,36,-1
 36 829 l 1,37,38
 36 997 36 997 93 1058.5 c 128,-1,39
 150 1120 150 1120 315 1120 c 2,40,-1
 1354 1120 l 1,41,-1
 1354 1020 l 1,42,-1
 1172 1020 l 1,43,-1
 1172 526 l 2,44,45
 1172 437 1172 437 1174 406 c 0,16,17
437 100 m 1,46,-1
 571 100 l 1,47,-1
 571 1020 l 1,48,-1
 437 1020 l 1,49,-1
 437 100 l 1,46,-1
EndSplineSet
EndChar

StartChar: gamma
Encoding: 947 947 407
Width: 1490
Flags: W
AnchorPoint: "below" 864 -430 basechar 0
AnchorPoint: "above" 864 1147 basechar 0
LayerCount: 2
Fore
SplineSet
471 1053 m 1,0,1
 645 860 645 860 730 440 c 0,2,3
 799 95 799 95 799 -297 c 1,4,-1
 929 -297 l 1,5,6
 929 118 929 118 860 440 c 0,7,8
 752 949 752 949 471 1053 c 1,0,1
700 -397 m 1,9,10
 700 142 700 142 630 440 c 0,11,12
 490 1039 490 1039 293 1039 c 0,13,14
 124 1039 124 1039 100 880 c 9,15,-1
 0 880 l 17,16,17
 0 978 0 978 71 1057 c 0,18,19
 152 1147 152 1147 397 1147 c 0,20,21
 833 1147 833 1147 970 440 c 1,22,23
 1080 850 1080 850 1240 1120 c 1,24,-1
 1370 1120 l 17,25,26
 1167 751 1167 751 1100 440 c 0,27,28
 1030 118 1030 118 1030 -397 c 1,29,-1
 700 -397 l 1,9,10
EndSplineSet
EndChar

StartChar: Gamma
Encoding: 915 915 408
Width: 1340
Flags: W
AnchorPoint: "below" 764 0 basechar 0
AnchorPoint: "above" 764 1520 basechar 0
LayerCount: 2
Fore
SplineSet
300 1393 m 1,0,-1
 300 100 l 1,1,-1
 502 100 l 1,2,-1
 502 1393 l 1,3,-1
 300 1393 l 1,0,-1
1328 1493 m 1,4,-1
 1328 1393 l 1,5,-1
 602 1393 l 1,6,-1
 602 0 l 1,7,-1
 200 0 l 1,8,-1
 200 1493 l 1,9,-1
 1328 1493 l 1,4,-1
EndSplineSet
EndChar

StartChar: Pi
Encoding: 928 928 409
Width: 1738
Flags: W
AnchorPoint: "above" 869 1520 basechar 0
AnchorPoint: "below" 869 0 basechar 0
LayerCount: 2
Fore
SplineSet
1235 1393 m 1,0,-1
 1235 100 l 1,1,-1
 1437 100 l 1,2,-1
 1437 1393 l 1,3,-1
 1235 1393 l 1,0,-1
301 1393 m 1,4,-1
 301 100 l 1,5,-1
 503 100 l 1,6,-1
 503 1393 l 1,7,-1
 301 1393 l 1,4,-1
1537 0 m 9,8,-1
 1135 0 l 17,9,-1
 1135 1393 l 1,10,-1
 603 1393 l 1,11,-1
 603 0 l 1,12,-1
 201 0 l 1,13,-1
 201 1493 l 1,14,-1
 1537 1493 l 17,15,-1
 1537 0 l 9,8,-1
EndSplineSet
EndChar

StartChar: Sigma
Encoding: 931 931 410
Width: 1660
Flags: W
LayerCount: 2
Fore
SplineSet
422 -294 m 17,5,-1
 1206 563 l 1,4,-1
 444 1373 l 1,3,-1
 184 1373 l 1,3,-1
 946 563 l 1,4,-1
 162 -294 l 9,5,-1
 422 -294 l 17,5,-1
1593 1473 m 17,1,-1
 1593 1373 l 1,2,-1
 594 1373 l 1,3,-1
 1356 563 l 1,4,-1
 572 -294 l 1,5,-1
 1619 -294 l 1,6,-1
 1619 -393 l 1,7,-1
 25 -393 l 1,8,-1
 25 -294 l 1,9,-1
 800 557 l 1,10,-1
 55 1346 l 1,11,-1
 55 1473 l 9,0,-1
 1593 1473 l 17,1,-1
EndSplineSet
EndChar

StartChar: uni2145
Encoding: 8517 8517 411
Width: 1677
Flags: W
LayerCount: 2
Fore
SplineSet
892 1493 m 2,0,1
 1326 1493 1326 1493 1494 1312 c 0,2,3
 1610 1188 1610 1188 1610 965 c 0,4,5
 1610 866 1610 866 1587 748 c 0,6,7
 1512 362 1512 362 1273 181 c 128,-1,8
 1034 0 1034 0 602 0 c 2,9,-1
 87 0 l 1,10,-1
 377 1493 l 1,11,-1
 892 1493 l 2,0,1
760 1393 m 1,12,-1
 509 100 l 1,13,-1
 608 100 l 2,14,15
 853 100 853 100 1026 165 c 1,16,-1
 1252 1328 l 1,17,18
 1105 1393 1105 1393 859 1393 c 2,19,-1
 760 1393 l 1,12,-1
458 1393 m 1,20,-1
 207 100 l 1,21,-1
 409 100 l 1,22,-1
 660 1393 l 1,23,-1
 458 1393 l 1,20,-1
1347 1273 m 1,24,-1
 1142 220 l 1,25,26
 1169 236 1169 236 1194 255 c 0,27,28
 1402 412 1402 412 1467 748 c 0,29,30
 1487 850 1487 850 1487 935 c 0,31,32
 1487 1129 1487 1129 1385 1238 c 0,33,34
 1367 1257 1367 1257 1347 1273 c 1,24,-1
EndSplineSet
EndChar

StartChar: uni2146
Encoding: 8518 8518 412
Width: 1450
Flags: W
LayerCount: 2
Fore
SplineSet
231 628 m 128,-1,1
 200 470 200 470 200 395 c 0,2,3
 200 280 200 280 242 201 c 0,4,5
 274 140 274 140 328 108 c 1,6,-1
 503 1010 l 1,7,8
 437 978 437 978 381 917 c 0,9,0
 262 787 262 787 231 628 c 128,-1,1
1150 0 m 1,10,-1
 816 0 l 1,11,-1
 849 168 l 1,12,13
 771 68 771 68 673 20 c 128,-1,14
 575 -29 575 -29 451 -29 c 0,15,16
 248 -29 248 -29 169 105 c 128,-1,17
 90 239 90 239 90 387 c 0,18,19
 90 467 90 467 124 645 c 128,-1,20
 159 823 159 823 318 985 c 128,-1,21
 477 1147 477 1147 680 1147 c 0,22,23
 804 1147 804 1147 883 1098 c 128,-1,24
 962 1050 962 1050 1001 950 c 1,25,-1
 1119 1556 l 1,26,-1
 1453 1556 l 1,27,-1
 1150 0 l 1,10,-1
1199 1456 m 1,28,-1
 934 92 l 1,29,-1
 1068 92 l 1,30,-1
 1333 1456 l 1,31,-1
 1199 1456 l 1,28,-1
615 1044 m 1,32,-1
 426 74 l 1,33,34
 450 71 450 71 476 71 c 0,35,36
 641 71 641 71 760 201 c 128,-1,37
 880 331 880 331 911 490 c 128,-1,38
 942 648 942 648 942 722 c 0,39,40
 942 838 942 838 886 942 c 128,-1,41
 831 1047 831 1047 666 1047 c 0,42,43
 640 1047 640 1047 615 1044 c 1,32,-1
EndSplineSet
EndChar

StartChar: uni2147
Encoding: 8519 8519 413
Width: 1260
Flags: W
LayerCount: 2
Fore
SplineSet
218 560 m 0,0,1
 206 500 206 500 206 445 c 0,2,3
 206 304 206 304 284 200 c 0,4,5
 306 171 306 171 336 149 c 1,6,-1
 497 975 l 1,7,8
 459 954 459 954 424 926 c 0,9,10
 264 796 264 796 218 560 c 0,0,1
432 102 m 1,11,12
 503 81 503 81 598 81 c 0,13,14
 719 81 719 81 846 112 c 0,15,16
 936 134 936 134 1028 174 c 1,17,-1
 1005 57 l 1,18,19
 898 15 898 15 790 -7 c 128,-1,20
 681 -29 681 -29 574 -29 c 0,21,22
 306 -29 306 -29 181 127 c 0,23,24
 91 238 91 238 91 404 c 0,25,26
 91 472 91 472 106 549 c 0,27,28
 159 824 159 824 340 986 c 0,29,30
 519 1147 519 1147 771 1147 c 0,31,32
 999 1147 999 1147 1101 1002 c 0,33,34
 1171 903 1171 903 1171 756 c 0,35,36
 1171 686 1171 686 1155 606 c 2,37,-1
 1137 516 l 1,38,-1
 512 516 l 1,39,-1
 432 102 l 1,11,12
532 616 m 1,40,-1
 1045 616 l 1,41,42
 1055 672 1055 672 1055 722 c 0,43,44
 1055 840 1055 840 998 922 c 0,45,46
 920 1037 920 1037 751 1037 c 0,47,48
 677 1037 677 1037 610 1020 c 1,49,-1
 532 616 l 1,40,-1
EndSplineSet
EndChar

StartChar: bracketleft
Encoding: 91 91 414
Width: 1014
Flags: W
LayerCount: 2
Fore
SplineSet
276 1456 m 1,0,-1
 276 -170 l 1,1,-1
 476 -170 l 1,2,-1
 476 1456 l 1,3,-1
 276 1456 l 1,0,-1
176 1556 m 1,4,-1
 816 1556 l 1,5,-1
 816 1456 l 1,6,-1
 576 1456 l 1,7,-1
 576 -170 l 1,8,-1
 816 -170 l 1,9,-1
 816 -270 l 1,10,-1
 176 -270 l 1,11,-1
 176 1556 l 1,4,-1
EndSplineSet
EndChar

StartChar: bracketright
Encoding: 93 93 415
Width: 1014
Flags: W
LayerCount: 2
Fore
SplineSet
715 1456 m 1,0,-1
 515 1456 l 1,1,-1
 515 -170 l 1,2,-1
 715 -170 l 1,3,-1
 715 1456 l 1,0,-1
815 1556 m 1,4,-1
 815 -270 l 1,5,-1
 175 -270 l 1,6,-1
 175 -170 l 1,7,-1
 415 -170 l 1,8,-1
 415 1456 l 1,9,-1
 175 1456 l 1,10,-1
 175 1556 l 1,11,-1
 815 1556 l 1,4,-1
EndSplineSet
EndChar

StartChar: braceleft
Encoding: 123 123 416
Width: 1503
Flags: W
LayerCount: 2
Fore
SplineSet
668 274 m 2,0,-1
 668 35 l 2,1,2
 668 -117 668 -117 705.5 -171.5 c 128,-1,3
 743 -226 743 -226 919 -233 c 1,4,5
 869 -162 869 -162 869 -5 c 2,6,-1
 869 1227 l 2,7,8
 869 1388 869 1388 917 1454 c 1,9,10
 741 1447 741 1447 704.5 1393.5 c 128,-1,11
 668 1340 668 1340 668 1188 c 2,12,-1
 668 948 l 2,13,14
 668 674 668 674 495 612 c 1,15,16
 668 544 668 544 668 274 c 2,0,-1
1247 1556 m 1,17,-1
 1247 1456 l 1,18,-1
 1194 1456 l 2,19,20
 1054 1456 1054 1456 1011.5 1412.5 c 128,-1,21
 969 1369 969 1369 969 1227 c 2,22,-1
 969 -5 l 2,23,24
 969 -146 969 -146 1011.5 -190 c 128,-1,25
 1054 -234 1054 -234 1194 -234 c 2,26,-1
 1247 -234 l 1,27,-1
 1247 -334 l 1,28,-1
 984 -334 l 2,29,30
 735 -334 735 -334 651.5 -260 c 128,-1,31
 568 -186 568 -186 568 35 c 2,32,-1
 568 274 l 2,33,34
 568 425 568 425 514 483 c 128,-1,35
 460 541 460 541 318 541 c 2,36,-1
 256 541 l 1,37,-1
 256 684 l 1,38,-1
 318 684 l 2,39,40
 460 684 460 684 514 741.5 c 128,-1,41
 568 799 568 799 568 948 c 2,42,-1
 568 1188 l 2,43,44
 568 1409 568 1409 651.5 1482.5 c 128,-1,45
 735 1556 735 1556 984 1556 c 2,46,-1
 1247 1556 l 1,17,-1
EndSplineSet
EndChar

StartChar: braceright
Encoding: 125 125 417
Width: 1503
Flags: W
LayerCount: 2
Fore
SplineSet
835 274 m 2,0,1
 835 544 835 544 1008 612 c 1,2,3
 835 674 835 674 835 948 c 2,4,-1
 835 1188 l 2,5,6
 835 1340 835 1340 798.5 1393.5 c 128,-1,7
 762 1447 762 1447 586 1454 c 1,8,9
 634 1388 634 1388 634 1227 c 2,10,-1
 634 -5 l 2,11,12
 634 -162 634 -162 584 -233 c 1,13,14
 760 -226 760 -226 797.5 -171.5 c 128,-1,15
 835 -117 835 -117 835 35 c 2,16,-1
 835 274 l 2,0,1
256 1556 m 1,17,-1
 519 1556 l 2,18,19
 768 1556 768 1556 851.5 1482.5 c 128,-1,20
 935 1409 935 1409 935 1188 c 2,21,-1
 935 948 l 2,22,23
 935 799 935 799 989 741.5 c 128,-1,24
 1043 684 1043 684 1185 684 c 2,25,-1
 1247 684 l 1,26,-1
 1247 541 l 1,27,-1
 1185 541 l 2,28,29
 1043 541 1043 541 989 483 c 128,-1,30
 935 425 935 425 935 274 c 2,31,-1
 935 35 l 2,32,33
 935 -186 935 -186 851.5 -260 c 128,-1,34
 768 -334 768 -334 519 -334 c 2,35,-1
 256 -334 l 1,36,-1
 256 -234 l 1,37,-1
 309 -234 l 2,38,39
 449 -234 449 -234 491.5 -190 c 128,-1,40
 534 -146 534 -146 534 -5 c 2,41,-1
 534 1227 l 2,42,43
 534 1369 534 1369 491.5 1412.5 c 128,-1,44
 449 1456 449 1456 309 1456 c 2,45,-1
 256 1456 l 1,46,-1
 256 1556 l 1,17,-1
EndSplineSet
EndChar

StartChar: A
Encoding: 65 65 486
Width: 1517
Flags: W
AnchorPoint: "below" 757 0 basechar 0
AnchorPoint: "above" 757 1520 basechar 0
LayerCount: 2
Fore
SplineSet
861 1393 m 1,0,-1
 656 1393 l 1,1,-1
 1150 100 l 1,2,-1
 1355 100 l 1,3,-1
 861 1393 l 1,0,-1
930 1493 m 1,4,-1
 1500 0 l 1,5,-1
 1080 0 l 1,6,-1
 928 417 l 1,7,-1
 288 417 l 1,8,-1
 135 0 l 1,9,-1
 16 0 l 1,10,-1
 585 1493 l 1,11,-1
 930 1493 l 1,4,-1
609 1294 m 1,12,-1
 324 517 l 1,13,-1
 892 517 l 1,14,-1
 609 1294 l 1,12,-1
EndSplineSet
EndChar

StartChar: B
Encoding: 66 66 487
Width: 1497
Flags: W
AnchorPoint: "above" 750 1520 basechar 0
AnchorPoint: "below" 750 0 basechar 0
LayerCount: 2
Fore
SplineSet
201 1493 m 1,0,-1
 815 1493 l 2,1,2
 1046 1493 1046 1493 1171 1397 c 128,-1,3
 1296 1301 1296 1301 1296 1124 c 0,4,5
 1296 895 1296 895 1104 802 c 1,6,7
 1358 705 1358 705 1358 418 c 0,8,9
 1358 218 1358 218 1222 109 c 128,-1,10
 1086 0 1086 0 835 0 c 2,11,-1
 201 0 l 1,12,-1
 201 1493 l 1,0,-1
601 745 m 1,13,-1
 601 100 l 1,14,-1
 835 100 l 2,15,16
 894 100 894 100 945 107 c 1,17,-1
 945 738 l 1,18,19
 894 745 894 745 835 745 c 2,20,-1
 601 745 l 1,13,-1
601 1393 m 1,21,-1
 601 845 l 1,22,-1
 815 845 l 2,23,24
 851 848 851 848 883 848 c 1,25,-1
 883 1391 l 1,26,27
 851 1393 851 1393 815 1393 c 1,28,-1
 601 1393 l 1,21,-1
301 1393 m 1,29,-1
 301 100 l 1,30,-1
 503 100 l 1,31,-1
 503 1393 l 1,32,-1
 301 1393 l 1,29,-1
1050 130 m 1,33,34
 1258 198 1258 198 1258 418 c 0,35,36
 1258 647 1258 647 1050 715 c 1,37,-1
 1050 130 l 1,33,34
988 865 m 1,38,39
 1196 919 1196 919 1196 1124 c 0,40,41
 1196 1320 1196 1320 988 1374 c 1,42,-1
 988 865 l 1,38,39
EndSplineSet
EndChar

StartChar: D
Encoding: 68 68 488
Width: 1677
Flags: W
AnchorPoint: "above" 828 1540 basechar 0
AnchorPoint: "below" 828 0 basechar 0
LayerCount: 2
Fore
SplineSet
232 1493 m 1,0,-1
 747 1493 l 2,1,2
 1181 1493 1181 1493 1384 1312.5 c 128,-1,3
 1587 1132 1587 1132 1587 748 c 0,4,5
 1587 362 1587 362 1383 181 c 128,-1,6
 1179 0 1179 0 747 0 c 2,7,-1
 232 0 l 1,8,-1
 232 1493 l 1,0,-1
634 1393 m 1,9,-1
 635 100 l 1,10,-1
 734 100 l 2,11,12
 979 100 979 100 1139 165 c 1,13,-1
 1139 1328 l 1,14,15
 979 1393 979 1393 733 1393 c 2,16,-1
 634 1393 l 1,9,-1
333 1393 m 1,17,-1
 333 100 l 1,18,-1
 535 100 l 1,19,-1
 534 1393 l 1,20,-1
 333 1393 l 1,17,-1
1244 220 m 1,21,22
 1467 369 1467 369 1467 748 c 0,23,24
 1467 1117 1467 1117 1244 1273 c 1,25,-1
 1244 220 l 1,21,22
EndSplineSet
EndChar

StartChar: E
Encoding: 69 69 489
Width: 1494
Flags: W
AnchorPoint: "above" 775 1520 basechar 0
AnchorPoint: "below" 775 0 basechar 0
LayerCount: 2
Fore
SplineSet
301 1393 m 1,0,-1
 301 100 l 1,1,-1
 503 100 l 1,2,-1
 503 1393 l 1,3,-1
 301 1393 l 1,0,-1
201 1493 m 1,4,-1
 1345 1493 l 1,5,-1
 1345 1393 l 1,6,-1
 603 1393 l 1,7,-1
 603 853 l 1,8,-1
 1314 853 l 1,9,-1
 1314 753 l 1,10,-1
 603 753 l 1,11,-1
 603 100 l 1,12,-1
 1363 100 l 1,13,-1
 1363 0 l 1,14,-1
 201 0 l 1,15,-1
 201 1493 l 1,4,-1
EndSplineSet
EndChar

StartChar: F
Encoding: 70 70 490
Width: 1379
Flags: W
AnchorPoint: "above" 775 1520 basechar 0
AnchorPoint: "below" 775 0 basechar 0
LayerCount: 2
Fore
SplineSet
201 1493 m 1,0,-1
 1260 1493 l 1,1,-1
 1260 1393 l 1,2,-1
 603 1393 l 1,3,-1
 603 853 l 1,4,-1
 1196 853 l 1,5,-1
 1196 753 l 1,6,-1
 603 753 l 1,7,-1
 603 0 l 1,8,-1
 201 0 l 1,9,-1
 201 1493 l 1,0,-1
503 1393 m 1,10,-1
 301 1393 l 1,11,-1
 301 100 l 1,12,-1
 503 100 l 1,13,-1
 503 1393 l 1,10,-1
EndSplineSet
EndChar

StartChar: G
Encoding: 71 71 491
Width: 1587
Flags: W
AnchorPoint: "above" 860 1520 basechar 0
AnchorPoint: "below" 860 0 basechar 0
LayerCount: 2
Fore
SplineSet
1380 1252 m 1,0,1
 1253 1349 1253 1349 1123 1384.5 c 128,-1,2
 993 1420 993 1420 860 1420 c 0,3,4
 673 1420 673 1420 538 1356 c 1,5,-1
 538 135 l 1,6,7
 673 71 673 71 860 71 c 0,8,9
 1005 71 1005 71 1132 109 c 0,10,11
 1233 140 1233 140 1319 193 c 1,12,-1
 1319 680 l 1,13,-1
 889 680 l 1,14,-1
 889 780 l 1,15,-1
 1419 780 l 1,16,-1
 1419 139 l 1,17,18
 1302 56 1302 56 1161 13.5 c 128,-1,19
 1020 -29 1020 -29 860 -29 c 0,20,21
 510 -29 510 -29 312.5 175.5 c 128,-1,22
 115 380 115 380 115 745 c 0,23,24
 115 1111 115 1111 312.5 1315.5 c 128,-1,25
 510 1520 510 1520 860 1520 c 0,26,27
 1006 1520 1006 1520 1137.5 1484 c 128,-1,28
 1269 1448 1269 1448 1380 1378 c 1,29,-1
 1380 1252 l 1,0,1
438 197 m 1,30,-1
 438 1294 l 1,31,32
 410 1272 410 1272 384 1246 c 0,33,34
 215 1071 215 1071 215 745 c 0,35,36
 215 420 215 420 384 245 c 0,37,38
 410 219 410 219 438 197 c 1,30,-1
EndSplineSet
EndChar

StartChar: I
Encoding: 73 73 492
Width: 804
Flags: W
AnchorPoint: "above" 402 1520 basechar 0
AnchorPoint: "below" 402 0 basechar 0
LayerCount: 2
Fore
SplineSet
302 1393 m 1,0,-1
 302 100 l 1,1,-1
 504 100 l 1,2,-1
 504 1393 l 1,3,-1
 302 1393 l 1,0,-1
102 1493 m 1,4,-1
 702 1493 l 1,5,-1
 702 1393 l 1,6,-1
 602 1393 l 1,7,-1
 602 100 l 1,8,-1
 702 100 l 1,9,-1
 702 0 l 1,10,-1
 102 0 l 1,11,-1
 102 100 l 1,12,-1
 202 100 l 1,13,-1
 202 1393 l 1,14,-1
 102 1393 l 1,15,-1
 102 1493 l 1,4,-1
EndSplineSet
EndChar

StartChar: J
Encoding: 74 74 493
Width: 802
Flags: W
AnchorPoint: "below" 401 -430 basechar 0
AnchorPoint: "above" 401 1520 basechar 0
LayerCount: 2
Fore
SplineSet
301 1393 m 1,0,-1
 301 34 l 2,1,2
 301 -208 301 -208 215 -308 c 1,3,4
 359 -298 359 -298 422 -224 c 0,5,6
 501 -130 501 -130 501 104 c 2,7,-1
 501 1393 l 1,8,-1
 301 1393 l 1,0,-1
201 1493 m 1,9,-1
 601 1493 l 1,10,-1
 601 104 l 2,11,12
 601 -166 601 -166 498.5 -288 c 128,-1,13
 396 -410 396 -410 169 -410 c 2,14,-1
 -106 -410 l 1,15,-1
 -106 -310 l 1,16,-1
 -43 -310 l 2,17,18
 91 -310 91 -310 146 -235 c 0,19,20
 201 -160 201 -160 201 34 c 2,21,-1
 201 1493 l 1,9,-1
EndSplineSet
EndChar

StartChar: K
Encoding: 75 75 494
Width: 1541
Flags: W
AnchorPoint: "above" 770 1520 basechar 0
AnchorPoint: "below" 770 0 basechar 0
LayerCount: 2
Fore
SplineSet
201 1493 m 1,0,-1
 601 1493 l 1,1,-1
 601 862 l 1,2,-1
 1372 1493 l 1,3,-1
 1531 1493 l 1,4,-1
 670 789 l 1,5,-1
 1584 0 l 1,6,-1
 1431 0 l 1,7,-1
 601 719 l 1,8,-1
 601 0 l 1,9,-1
 201 0 l 1,10,-1
 201 1493 l 1,0,-1
301 1393 m 1,11,-1
 301 100 l 1,12,-1
 503 100 l 1,13,-1
 503 1393 l 1,14,-1
 301 1393 l 1,11,-1
EndSplineSet
EndChar

StartChar: L
Encoding: 76 76 495
Width: 1341
Flags: W
AnchorPoint: "above" 756 1520 basechar 0
AnchorPoint: "below" 756 0 basechar 0
LayerCount: 2
Fore
SplineSet
201 1493 m 1,0,-1
 603 1493 l 1,1,-1
 603 100 l 1,2,-1
 1330 100 l 1,3,-1
 1330 0 l 1,4,-1
 201 0 l 1,5,-1
 201 1493 l 1,0,-1
301 1391 m 1,6,-1
 301 98 l 1,7,-1
 503 98 l 1,8,-1
 503 1391 l 1,9,-1
 301 1391 l 1,6,-1
EndSplineSet
EndChar

StartChar: M
Encoding: 77 77 496
Width: 2099
Flags: W
AnchorPoint: "above" 1049 1520 basechar 0
AnchorPoint: "below" 1049 0 basechar 0
LayerCount: 2
Fore
SplineSet
1501 0 m 1,0,-1
 1501 1393 l 1,1,-1
 1084 287 l 25,2,-1
 1013 287 l 25,3,-1
 599 1393 l 1,4,-1
 598 0 l 1,5,-1
 196 0 l 1,6,-1
 196 1493 l 1,7,-1
 668 1493 l 1,8,-1
 1049 477 l 1,9,-1
 1432 1493 l 1,10,-1
 1903 1493 l 1,11,-1
 1903 0 l 1,12,-1
 1501 0 l 1,0,-1
1601 1393 m 1,13,-1
 1601 100 l 1,14,-1
 1803 100 l 1,15,-1
 1803 1393 l 1,16,-1
 1601 1393 l 1,13,-1
296 1393 m 1,17,-1
 296 100 l 1,18,-1
 498 100 l 1,19,-1
 498 1393 l 1,20,-1
 296 1393 l 1,17,-1
EndSplineSet
EndChar

StartChar: O
Encoding: 79 79 497
Width: 1612
Flags: W
AnchorPoint: "below" 806 0 basechar 0
AnchorPoint: "above" 806 1520 basechar 0
LayerCount: 2
Fore
SplineSet
806 1520 m 0,0,1
 1120 1520 1120 1520 1308 1310 c 0,2,3
 1498 1097 1498 1097 1498 745 c 24,4,5
 1498 394 1498 394 1309 182 c 24,6,7
 1120 -29 1120 -29 806 -29 c 24,8,9
 491 -29 491 -29 303 182 c 0,10,11
 114 392 114 392 114 745 c 0,12,13
 114 1099 114 1099 303 1310 c 0,14,15
 491 1520 491 1520 806 1520 c 0,0,1
562 126 m 1,16,17
 670 76 670 76 806 76 c 128,-1,18
 942 76 942 76 1050 126 c 1,19,-1
 1050 1365 l 1,20,21
 942 1415 942 1415 806 1415 c 128,-1,22
 670 1415 670 1415 562 1365 c 1,23,-1
 562 126 l 1,16,17
457 191 m 1,24,-1
 457 1299 l 1,25,26
 421 1270 421 1270 389 1233 c 0,27,28
 234 1051 234 1051 234 745 c 128,-1,29
 234 439 234 439 389 258 c 0,30,31
 421 221 421 221 457 191 c 1,24,-1
1155 1298 m 1,32,-1
 1155 193 l 1,33,34
 1190 222 1190 222 1221 258 c 0,35,36
 1376 440 1376 440 1376 745.5 c 128,-1,37
 1376 1051 1376 1051 1221 1233 c 0,38,39
 1190 1269 1190 1269 1155 1298 c 1,32,-1
114 745 m 24,40,-1
EndSplineSet
EndChar

StartChar: S
Encoding: 83 83 498
Width: 1300
Flags: W
AnchorPoint: "below" 641 0 basechar 0
AnchorPoint: "above" 641 1520 basechar 0
LayerCount: 2
Fore
SplineSet
336 1325 m 1,0,1
 236 1234 236 1234 236 1079 c 128,-1,2
 236 924 236 924 304 847 c 128,-1,3
 372 770 372 770 544 729 c 2,4,-1
 655 703 l 2,5,6
 824 664 824 664 908 571.5 c 128,-1,7
 992 479 992 479 992 350.5 c 128,-1,8
 992 222 992 222 954 144 c 1,9,10
 1083 232 1083 232 1083 410 c 128,-1,11
 1083 588 1083 588 1005 681.5 c 128,-1,12
 927 775 927 775 757 814 c 2,13,-1
 647 841 l 2,14,15
 471 880 471 880 392 958.5 c 128,-1,16
 313 1037 313 1037 313 1150.5 c 128,-1,17
 313 1264 313 1264 336 1325 c 1,0,1
1096 1444 m 9,18,-1
 1096 1332 l 17,19,20
 890 1449 890 1449 732.5 1449 c 128,-1,21
 575 1449 575 1449 494 1380.5 c 128,-1,22
 413 1312 413 1312 413 1195.5 c 128,-1,23
 413 1079 413 1079 467.5 1026.5 c 128,-1,24
 522 974 522 974 670 938 c 2,25,-1
 780 911 l 2,26,27
 982 861 982 861 1082.5 743.5 c 128,-1,28
 1183 626 1183 626 1183 414 c 128,-1,29
 1183 202 1183 202 1039 83 c 128,-1,30
 895 -36 895 -36 648.5 -36 c 128,-1,31
 402 -36 402 -36 141 66 c 1,32,-1
 141 190 l 1,33,34
 364 41 364 41 543.5 41 c 128,-1,35
 723 41 723 41 807.5 114 c 128,-1,36
 892 187 892 187 892 313.5 c 128,-1,37
 892 440 892 440 831 507 c 128,-1,38
 770 574 770 574 632 606 c 2,39,-1
 521 632 l 2,40,41
 319 679 319 679 227.5 782.5 c 128,-1,42
 136 886 136 886 136 1084 c 152,-1,43
 136 1282 136 1282 275 1404 c 128,-1,44
 414 1526 414 1526 641 1526 c 128,-1,45
 868 1526 868 1526 1096 1444 c 9,18,-1
EndSplineSet
EndChar

StartChar: T
Encoding: 84 84 499
Width: 1450
Flags: W
AnchorPoint: "below" 725 0 basechar 0
AnchorPoint: "above" 725 1520 basechar 0
LayerCount: 2
Fore
SplineSet
626 1393 m 1,0,-1
 626 100 l 1,1,-1
 826 100 l 1,2,-1
 826 1393 l 1,3,-1
 626 1393 l 1,0,-1
-6 1493 m 1,4,-1
 1456 1493 l 1,5,-1
 1456 1393 l 1,6,-1
 926 1393 l 1,7,-1
 926 0 l 1,8,-1
 526 0 l 1,9,-1
 526 1393 l 1,10,-1
 -6 1393 l 1,11,-1
 -6 1493 l 1,4,-1
EndSplineSet
EndChar

StartChar: U
Encoding: 85 85 500
Width: 1700
Flags: W
AnchorPoint: "below" 850 0 basechar 0
AnchorPoint: "above" 850 1520 basechar 0
LayerCount: 2
Fore
SplineSet
1222 1393 m 1,0,-1
 1222 522 l 2,1,2
 1222 240 1222 240 1134 110 c 0,3,4
 1423 208 1423 208 1423 561 c 2,5,-1
 1423 1393 l 1,6,-1
 1222 1393 l 1,0,-1
277 1393 m 1,7,-1
 277 561 l 2,8,9
 277 207 277 207 566 111 c 0,10,11
 477 235 477 235 478 522 c 2,12,-1
 478 1393 l 1,13,-1
 277 1393 l 1,7,-1
177 1493 m 1,14,-1
 578 1493 l 1,15,-1
 578 522 l 2,16,17
 578 282 578 282 642 176.5 c 128,-1,18
 706 71 706 71 850 71 c 152,-1,19
 994 71 994 71 1058 176.5 c 128,-1,20
 1122 282 1122 282 1122 522 c 2,21,-1
 1122 1493 l 1,22,-1
 1523 1493 l 1,23,-1
 1523 561 l 2,24,25
 1523 269 1523 269 1353 120 c 128,-1,26
 1183 -29 1183 -29 850 -29 c 152,-1,27
 517 -29 517 -29 347 120 c 128,-1,28
 177 269 177 269 177 561 c 2,29,-1
 177 1493 l 1,14,-1
EndSplineSet
EndChar

StartChar: V
Encoding: 86 86 501
Width: 1480
Flags: W
AnchorPoint: "above" 740 1520 basechar 0
AnchorPoint: "below" 740 0 basechar 0
LayerCount: 2
Fore
SplineSet
154 1393 m 1,0,-1
 648 100 l 9,1,-1
 848 100 l 17,2,-1
 354 1393 l 1,3,-1
 154 1393 l 1,0,-1
16 1493 m 1,4,-1
 416 1493 l 1,5,-1
 889 236 l 1,6,-1
 1363 1493 l 1,7,-1
 1463 1493 l 1,8,-1
 894 0 l 1,9,-1
 586 0 l 1,10,-1
 16 1493 l 1,4,-1
EndSplineSet
EndChar

StartChar: W
Encoding: 87 87 502
Width: 2269
Flags: W
AnchorPoint: "above" 1144 1527 basechar 0
AnchorPoint: "below" 1144 0 basechar 0
LayerCount: 2
Fore
SplineSet
1220 1393 m 17,0,-1
 1544 100 l 1,1,-1
 1744 100 l 1,2,-1
 1420 1393 l 9,3,-1
 1220 1393 l 17,0,-1
193 1393 m 17,4,-1
 517 100 l 1,5,-1
 717 100 l 1,6,-1
 393 1393 l 9,7,-1
 193 1393 l 17,4,-1
68 1493 m 1,8,-1
 468 1493 l 1,9,-1
 782 231 l 1,10,-1
 1095 1493 l 1,11,-1
 1495 1493 l 1,12,-1
 1809 231 l 1,13,-1
 2122 1493 l 1,14,-1
 2222 1493 l 1,15,-1
 1847 0 l 1,16,-1
 1459 0 l 1,17,-1
 1144 1296 l 1,18,-1
 826 0 l 1,19,-1
 442 0 l 1,20,-1
 68 1493 l 1,8,-1
EndSplineSet
EndChar

StartChar: X
Encoding: 88 88 503
Width: 1650
Flags: W
AnchorPoint: "above" 825 1527 basechar 0
AnchorPoint: "below" 825 0 basechar 0
LayerCount: 2
Fore
SplineSet
296 1393 m 1,0,-1
 1156 100 l 1,1,-1
 1354 100 l 1,2,-1
 494 1393 l 1,3,-1
 296 1393 l 1,0,-1
108 1493 m 1,4,-1
 548 1493 l 1,5,-1
 922 931 l 1,6,-1
 1310 1493 l 1,7,-1
 1408 1493 l 1,8,-1
 972 857 l 1,9,-1
 1542 0 l 1,10,-1
 1102 0 l 1,11,-1
 728 562 l 1,12,-1
 340 0 l 1,13,-1
 240 0 l 1,14,-1
 678 635 l 1,15,-1
 108 1493 l 1,4,-1
EndSplineSet
EndChar

StartChar: Y
Encoding: 89 89 504
Width: 1448
Flags: W
AnchorPoint: "above" 724 1527 basechar 0
AnchorPoint: "below" 724 0 basechar 0
LayerCount: 2
Fore
SplineSet
878 787 m 1,0,-1
 1352 1493 l 1,1,-1
 1452 1493 l 1,2,-1
 924 711 l 1,3,-1
 924 0 l 1,4,-1
 524 0 l 1,5,-1
 524 711 l 1,6,-1
 -4 1493 l 1,7,-1
 400 1493 l 1,8,-1
 878 787 l 1,0,-1
826 711 m 1,9,-1
 364 1393 l 1,10,-1
 164 1393 l 1,11,-1
 624 711 l 1,12,-1
 624 100 l 1,13,-1
 826 100 l 1,14,-1
 826 711 l 1,9,-1
EndSplineSet
EndChar

StartChar: a
Encoding: 97 97 505
Width: 1355
Flags: W
LayerCount: 2
Fore
SplineSet
1071 639 m 2,0,1
 1071 850 1071 850 996 917 c 128,-1,2
 921 984 921 984 860 1008 c 1,3,4
 935 915 935 915 935 779 c 2,5,-1
 935 100 l 1,6,-1
 1071 100 l 1,7,-1
 1071 639 l 2,0,1
1171 639 m 2,8,-1
 1171 0 l 1,9,-1
 835 0 l 1,10,-1
 835 170 l 1,11,12
 772 68 772 68 678 19.5 c 128,-1,13
 584 -29 584 -29 498 -29 c 0,14,15
 326 -29 326 -29 224.5 67.5 c 128,-1,16
 123 164 123 164 123 326 c 0,17,18
 123 515 123 515 249.5 611 c 128,-1,19
 376 707 376 707 627 707 c 2,20,-1
 835 707 l 1,21,-1
 835 779 l 2,22,23
 835 906 835 906 776.5 975.5 c 128,-1,24
 718 1045 718 1045 567 1045 c 0,25,26
 471 1045 471 1045 380 1022 c 128,-1,27
 289 999 289 999 205 953 c 1,28,-1
 205 1069 l 1,29,30
 324 1108 324 1108 435.5 1127.5 c 128,-1,31
 547 1147 547 1147 603 1147 c 0,32,33
 889 1147 889 1147 1030 1021 c 128,-1,34
 1171 895 1171 895 1171 639 c 2,8,-1
835 522 m 2,35,-1
 835 607 l 1,36,-1
 627 607 l 2,37,38
 573 607 573 607 526 603 c 1,39,-1
 526 72 l 1,40,41
 620 76 620 76 669 115 c 128,-1,42
 718 154 718 154 777 226 c 0,43,44
 835 297 835 297 835 522 c 2,35,-1
426 77 m 1,45,-1
 426 586 l 1,46,47
 359 568 359 568 291 516.5 c 128,-1,48
 223 465 223 465 223 326 c 0,49,50
 223 207 223 207 284 149 c 128,-1,51
 345 91 345 91 426 77 c 1,45,-1
EndSplineSet
EndChar

StartChar: b
Encoding: 98 98 506
Width: 1450
Flags: W
LayerCount: 2
Fore
SplineSet
148 1556 m 1,0,-1
 482 1556 l 1,1,-1
 482 950 l 1,2,3
 540 1050 540 1050 628.5 1098.5 c 128,-1,4
 717 1147 717 1147 841 1147 c 0,5,6
 1044 1147 1044 1147 1171.5 985 c 128,-1,7
 1299 823 1299 823 1299 559 c 0,8,9
 1299 295 1299 295 1171.5 133 c 128,-1,10
 1044 -29 1044 -29 841 -29 c 0,11,12
 717 -29 717 -29 628.5 19.5 c 128,-1,13
 540 68 540 68 482 168 c 1,14,-1
 482 0 l 1,15,-1
 148 0 l 1,16,-1
 148 1556 l 1,0,-1
1190 628 m 0,17,18
 1190 787 1190 787 1096 917 c 0,19,20
 1052 978 1052 978 992 1010 c 1,21,-1
 992 108 l 1,22,23
 1052 140 1052 140 1096 201 c 0,24,25
 1153 280 1153 280 1175 395 c 0,26,27
 1190 470 1190 470 1190 628 c 0,17,18
248 1456 m 1,28,-1
 248 92 l 1,29,-1
 382 92 l 1,30,-1
 382 1456 l 1,31,-1
 248 1456 l 1,28,-1
887 1044 m 1,32,33
 862 1047 862 1047 836 1047 c 0,34,35
 671 1047 671 1047 596 942 c 0,36,37
 519 838 519 838 497 722 c 0,38,39
 483 648 483 648 483 490 c 0,40,41
 483 331 483 331 578 201 c 0,42,43
 671 71 671 71 836 71 c 0,44,45
 862 71 862 71 887 74 c 1,46,-1
 887 1044 l 1,32,33
EndSplineSet
EndChar

StartChar: c
Encoding: 99 99 507
Width: 1126
Flags: W
LayerCount: 2
Fore
SplineSet
999 143 m 1,0,-1
 999 43 l 1,1,2
 922 7 922 7 839.5 -11 c 128,-1,3
 757 -29 757 -29 664 -29 c 0,4,5
 411 -29 411 -29 262 130 c 128,-1,6
 113 289 113 289 113 559 c 0,7,8
 113 833 113 833 263.5 990 c 128,-1,9
 414 1147 414 1147 676 1147 c 0,10,11
 761 1147 761 1147 842 1129.5 c 128,-1,12
 923 1112 923 1112 999 1077 c 1,13,-1
 999 977 l 1,14,15
 930 1008 930 1008 821 1032 c 0,16,17
 750 1047 750 1047 676 1047 c 0,18,19
 588 1047 588 1047 516 1027 c 1,20,-1
 516 90 l 1,21,22
 583 71 583 71 664 71 c 0,23,24
 746 71 746 71 818 87 c 0,25,26
 904 106 904 106 999 143 c 1,0,-1
416 133 m 1,27,-1
 416 984 l 1,28,29
 372 958 372 958 336 921 c 0,30,31
 213 793 213 793 213 559 c 0,32,33
 213 329 213 329 335 198 c 0,34,35
 371 160 371 160 416 133 c 1,27,-1
EndSplineSet
EndChar

StartChar: d
Encoding: 100 100 508
Width: 1450
Flags: W
LayerCount: 2
Fore
SplineSet
965 950 m 1,0,-1
 965 1556 l 1,1,-1
 1299 1556 l 1,2,-1
 1299 0 l 1,3,-1
 965 0 l 1,4,-1
 965 168 l 1,5,6
 907 68 907 68 818.5 19.5 c 128,-1,7
 730 -29 730 -29 606 -29 c 0,8,9
 403 -29 403 -29 275.5 133 c 128,-1,10
 148 295 148 295 148 559 c 0,11,12
 148 823 148 823 275.5 985 c 128,-1,13
 403 1147 403 1147 606 1147 c 0,14,15
 730 1147 730 1147 818.5 1098.5 c 128,-1,16
 907 1050 907 1050 965 950 c 1,0,-1
257 628 m 0,17,18
 257 470 257 470 272 395 c 0,19,20
 294 280 294 280 351 201 c 0,21,22
 395 140 395 140 455 108 c 1,23,-1
 455 1010 l 1,24,25
 395 978 395 978 351 917 c 0,26,27
 257 787 257 787 257 628 c 0,17,18
1065 1456 m 1,28,-1
 1065 92 l 1,29,-1
 1199 92 l 1,30,-1
 1199 1456 l 1,31,-1
 1065 1456 l 1,28,-1
560 1044 m 1,32,-1
 560 74 l 1,33,34
 585 71 585 71 611 71 c 0,35,36
 776 71 776 71 869 201 c 0,37,38
 964 331 964 331 964 490 c 0,39,40
 964 648 964 648 950 722 c 0,41,42
 928 838 928 838 851 942 c 0,43,44
 776 1047 776 1047 611 1047 c 0,45,46
 585 1047 585 1047 560 1044 c 1,32,-1
EndSplineSet
EndChar

StartChar: e
Encoding: 101 101 509
Width: 1260
Flags: W
LayerCount: 2
Fore
SplineSet
1149 516 m 1,0,-1
 520 516 l 1,1,-1
 521 102 l 1,2,3
 596 81 596 81 691 81 c 0,4,5
 908 81 908 81 1103 174 c 1,6,-1
 1103 57 l 1,7,8
 994 12 994 12 896.5 -8.5 c 128,-1,9
 799 -29 799 -29 692 -29 c 0,10,11
 424 -29 424 -29 267.5 127 c 128,-1,12
 111 283 111 283 111 549 c 0,13,14
 111 824 111 824 259.5 985.5 c 128,-1,15
 408 1147 408 1147 660 1147 c 0,16,17
 889 1147 889 1147 1019 1000 c 128,-1,18
 1149 853 1149 853 1149 606 c 2,19,-1
 1149 516 l 1,0,-1
416 975 m 1,20,21
 218 853 218 853 218 560 c 0,22,23
 219 291 219 291 416 149 c 1,24,-1
 416 975 l 1,20,21
521 616 m 1,25,-1
 1034 616 l 1,26,27
 1031 806 1031 806 929 921.5 c 128,-1,28
 827 1037 827 1037 658 1037 c 0,29,30
 584 1037 584 1037 520 1020 c 1,31,-1
 521 616 l 1,25,-1
EndSplineSet
EndChar

StartChar: f
Encoding: 102 102 510
Width: 953
Flags: W
LayerCount: 2
Fore
SplineSet
529 1454 m 1,0,1
 426 1444 426 1444 380 1399 c 0,2,3
 323 1343 323 1343 323 1198 c 2,4,-1
 323 100 l 1,5,-1
 458 100 l 1,6,-1
 458 1198 l 2,7,8
 458 1293 458 1293 480 1361 c 0,9,10
 498 1417 498 1417 529 1454 c 1,0,1
995 1556 m 1,11,-1
 995 1456 l 1,12,-1
 821 1456 l 2,13,14
 673 1456 673 1456 615 1399 c 0,15,16
 558 1344 558 1344 558 1198 c 2,17,-1
 558 1098 l 1,18,-1
 946 1098 l 1,19,-1
 946 998 l 1,20,-1
 558 998 l 1,21,-1
 558 0 l 1,22,-1
 223 0 l 1,23,-1
 223 998 l 1,24,-1
 47 998 l 1,25,-1
 47 1098 l 1,26,-1
 223 1098 l 1,27,-1
 223 1198 l 2,28,29
 223 1386 223 1386 310 1470 c 0,30,31
 398 1556 398 1556 586 1556 c 2,32,-1
 995 1556 l 1,11,-1
EndSplineSet
EndChar

StartChar: g
Encoding: 103 103 511
Width: 1450
Flags: W
LayerCount: 2
Fore
SplineSet
1030 1018 m 1,0,-1
 1030 55 l 2,1,2
 1030 -147 1030 -147 924 -287 c 1,3,4
 929 -292 929 -292 1046.5 -213.5 c 128,-1,6
 1164 -135 1164 -135 1164 139 c 2,7,-1
 1164 1018 l 1,8,-1
 1030 1018 l 1,0,-1
248 -367 m 1,9,-1
 248 -239 l 1,10,11
 329 -283 329 -283 408 -304 c 128,-1,12
 487 -325 487 -325 569 -325 c 0,13,14
 750 -325 750 -325 840 -230.5 c 128,-1,15
 930 -136 930 -136 930 55 c 2,16,-1
 930 168 l 1,17,18
 872 68 872 68 783.5 19.5 c 128,-1,19
 695 -29 695 -29 571 -29 c 0,20,21
 368 -29 368 -29 240.5 133 c 128,-1,22
 113 295 113 295 113 559 c 0,23,24
 113 823 113 823 240.5 985 c 128,-1,25
 368 1147 368 1147 571 1147 c 0,26,27
 695 1147 695 1147 783.5 1098.5 c 128,-1,28
 872 1050 872 1050 930 950 c 1,29,-1
 930 1118 l 1,30,-1
 1264 1118 l 1,31,-1
 1264 139 l 2,32,33
 1264 -147 1264 -147 1115 -286.5 c 128,-1,34
 966 -426 966 -426 659 -426 c 0,35,36
 545 -426 545 -426 444 -411.5 c 128,-1,37
 343 -397 343 -397 248 -367 c 1,9,-1
222 490 m 0,38,39
 222 331 222 331 316 201 c 0,40,41
 360 140 360 140 420 108 c 1,42,-1
 420 1010 l 1,43,44
 360 978 360 978 316 917 c 0,45,46
 259 838 259 838 237 723 c 0,47,48
 222 648 222 648 222 490 c 0,38,39
525 74 m 1,49,50
 550 71 550 71 576 71 c 0,51,52
 741 71 741 71 816 176 c 0,53,54
 893 280 893 280 915 396 c 0,55,56
 929 470 929 470 929 628 c 0,57,58
 929 787 929 787 834 917 c 0,59,60
 741 1047 741 1047 576 1047 c 0,61,62
 550 1047 550 1047 525 1044 c 1,63,-1
 525 74 l 1,49,50
EndSplineSet
EndChar

StartChar: h
Encoding: 104 104 512
Width: 1509
Flags: W
LayerCount: 2
Fore
SplineSet
1024 1037 m 1,0,1
 1033 1026 1033 1026 1041 1014 c 0,2,3
 1112 910 1112 910 1112 720 c 2,4,-1
 1112 100 l 1,5,-1
 1252 100 l 1,6,-1
 1252 676 l 2,7,8
 1252 869 1252 869 1169 960 c 0,9,10
 1116 1018 1116 1018 1024 1037 c 1,0,1
286 1456 m 1,11,-1
 286 100 l 1,12,-1
 421 100 l 1,13,-1
 421 1456 l 1,14,-1
 286 1456 l 1,11,-1
186 1556 m 1,15,-1
 521 1556 l 1,16,-1
 521 946 l 1,17,18
 594 1047 594 1047 693 1097 c 128,-1,19
 792 1147 792 1147 921 1147 c 0,20,21
 1133 1147 1133 1147 1242.5 1027.5 c 128,-1,22
 1352 908 1352 908 1352 676 c 2,23,-1
 1352 0 l 1,24,-1
 1012 0 l 1,25,-1
 1012 720 l 2,26,27
 1012 879 1012 879 958.5 958 c 128,-1,28
 905 1037 905 1037 798 1037 c 0,29,30
 670 1037 670 1037 595.5 942 c 128,-1,31
 521 847 521 847 521 683 c 2,32,-1
 521 0 l 1,33,-1
 186 0 l 1,34,-1
 186 1556 l 1,15,-1
EndSplineSet
EndChar

StartChar: i
Encoding: 105 105 513
Width: 719
Flags: W
LayerCount: 2
Fore
SplineSet
330 1020 m 1,0,-1
 330 100 l 1,1,-1
 465 100 l 1,2,-1
 465 1020 l 1,3,-1
 330 1020 l 1,0,-1
305 1556 m 1,4,-1
 490 1556 l 1,5,-1
 490 1323 l 1,6,-1
 305 1323 l 1,7,-1
 305 1556 l 1,4,-1
230 1120 m 1,8,-1
 565 1120 l 1,9,-1
 565 0 l 9,10,-1
 230 0 l 1,11,-1
 230 1120 l 1,8,-1
EndSplineSet
EndChar

StartChar: j
Encoding: 106 106 514
Width: 719
Flags: W
LayerCount: 2
Fore
SplineSet
424 -22 m 10,0,-1
 424 1020 l 17,1,-1
 289 1020 l 1,2,-1
 289 -52 l 2,3,4
 289 -233 289 -233 252 -317 c 1,5,6
 323 -302 323 -302 363 -254 c 0,7,8
 424 -182 424 -182 424 -22 c 10,0,-1
180 -426 m 10,9,-1
 -41 -426 l 17,10,-1
 -41 -326 l 1,11,-1
 8 -326 l 2,12,13
 116 -326 116 -326 152 -278 c 0,14,15
 189 -229 189 -229 189 -76 c 2,16,-1
 189 1120 l 1,17,-1
 524 1120 l 1,18,-1
 524 -20 l 2,19,20
 524 -234 524 -234 443 -330 c 0,21,22
 361 -426 361 -426 180 -426 c 10,9,-1
264 1556 m 1,23,-1
 448 1556 l 1,24,-1
 448 1323 l 1,25,-1
 264 1323 l 1,26,-1
 264 1556 l 1,23,-1
EndSplineSet
EndChar

StartChar: k
Encoding: 107 107 515
Width: 1333
Flags: W
LayerCount: 2
Fore
SplineSet
186 1556 m 1,0,-1
 521 1556 l 1,1,-1
 521 637 l 1,2,-1
 1165 1120 l 1,3,-1
 1305 1120 l 1,4,-1
 609 598 l 1,5,-1
 1330 0 l 1,6,-1
 1180 0 l 1,7,-1
 521 547 l 1,8,-1
 521 0 l 1,9,-1
 186 0 l 1,10,-1
 186 1556 l 1,0,-1
286 1456 m 1,11,-1
 286 100 l 1,12,-1
 421 100 l 1,13,-1
 421 1456 l 1,14,-1
 286 1456 l 1,11,-1
EndSplineSet
EndChar

StartChar: l
Encoding: 108 108 516
Width: 719
Flags: W
LayerCount: 2
Fore
SplineSet
330 404 m 18,0,1
 330 244 330 244 391 172 c 0,2,3
 431 124 431 124 502 109 c 1,4,5
 465 193 465 193 465 374 c 2,6,-1
 465 1446 l 1,7,-1
 330 1446 l 9,8,-1
 330 404 l 18,0,1
575 0 m 18,9,10
 393 0 393 0 311 96 c 0,11,12
 230 192 230 192 230 406 c 2,13,-1
 230 1556 l 1,14,-1
 565 1556 l 1,15,-1
 565 350 l 2,16,17
 565 194 565 194 603 147 c 128,-1,18
 641 100 641 100 746 100 c 1,19,-1
 746 0 l 9,20,-1
 575 0 l 18,9,10
EndSplineSet
EndChar

StartChar: m
Encoding: 109 109 517
Width: 2338
Flags: W
LayerCount: 2
Fore
SplineSet
186 1120 m 1,0,-1
 521 1120 l 1,1,-1
 521 946 l 1,2,3
 594 1047 594 1047 693 1097 c 128,-1,4
 792 1147 792 1147 921 1147 c 0,5,6
 1133 1147 1133 1147 1211.5 1061 c 128,-1,7
 1290 975 1290 975 1317 901 c 1,8,9
 1401 1029 1401 1029 1512 1088 c 128,-1,10
 1623 1147 1623 1147 1752 1147 c 0,11,12
 1964 1147 1964 1147 2073.5 1027.5 c 128,-1,13
 2183 908 2183 908 2183 676 c 2,14,-1
 2183 0 l 1,15,-1
 1843 0 l 1,16,-1
 1843 720 l 2,17,18
 1843 879 1843 879 1789.5 958 c 128,-1,19
 1736 1037 1736 1037 1629 1037 c 0,20,21
 1501 1037 1501 1037 1426.5 942 c 128,-1,22
 1352 847 1352 847 1352 676 c 2,23,-1
 1352 0 l 1,24,-1
 1012 0 l 1,25,-1
 1012 720 l 2,26,27
 1012 879 1012 879 958.5 958 c 128,-1,28
 905 1037 905 1037 798 1037 c 0,29,30
 670 1037 670 1037 595.5 942 c 128,-1,31
 521 847 521 847 521 683 c 2,32,-1
 521 0 l 1,33,-1
 186 0 l 1,34,-1
 186 1120 l 1,0,-1
286 1020 m 1,35,-1
 286 100 l 1,36,-1
 421 100 l 1,37,-1
 421 1020 l 1,38,-1
 286 1020 l 1,35,-1
1024 1037 m 1,39,40
 1033 1026 1033 1026 1041 1014 c 0,41,42
 1112 910 1112 910 1112 720 c 2,43,-1
 1112 100 l 1,44,-1
 1252 100 l 1,45,-1
 1252 676 l 2,46,47
 1252 869 1252 869 1169 960 c 0,48,49
 1116 1018 1116 1018 1024 1037 c 1,39,40
1855 1037 m 1,50,51
 1864 1026 1864 1026 1872 1014 c 0,52,53
 1943 910 1943 910 1943 720 c 2,54,-1
 1943 100 l 1,55,-1
 2083 100 l 1,56,-1
 2083 676 l 2,57,58
 2083 869 2083 869 2000 960 c 0,59,60
 1947 1018 1947 1018 1855 1037 c 1,50,51
EndSplineSet
EndChar

StartChar: n
Encoding: 110 110 518
Width: 1509
Flags: W
LayerCount: 2
Fore
SplineSet
1024 1037 m 1,0,1
 1033 1026 1033 1026 1041 1014 c 0,2,3
 1112 910 1112 910 1112 720 c 2,4,-1
 1112 100 l 1,5,-1
 1252 100 l 1,6,-1
 1252 676 l 2,7,8
 1252 869 1252 869 1169 960 c 0,9,10
 1116 1018 1116 1018 1024 1037 c 1,0,1
286 1020 m 1,11,-1
 286 100 l 1,12,-1
 421 100 l 1,13,-1
 421 1020 l 1,14,-1
 286 1020 l 1,11,-1
186 1120 m 1,15,-1
 521 1120 l 1,16,-1
 521 946 l 1,17,18
 594 1047 594 1047 693 1097 c 128,-1,19
 792 1147 792 1147 921 1147 c 0,20,21
 1133 1147 1133 1147 1242.5 1027.5 c 128,-1,22
 1352 908 1352 908 1352 676 c 2,23,-1
 1352 0 l 1,24,-1
 1012 0 l 1,25,-1
 1012 720 l 2,26,27
 1012 879 1012 879 958.5 958 c 128,-1,28
 905 1037 905 1037 798 1037 c 0,29,30
 670 1037 670 1037 595.5 942 c 128,-1,31
 521 847 521 847 521 683 c 2,32,-1
 521 0 l 1,33,-1
 186 0 l 1,34,-1
 186 1120 l 1,15,-1
EndSplineSet
EndChar

StartChar: o
Encoding: 111 111 519
Width: 1253
Flags: W
LayerCount: 2
Fore
SplineSet
627 1147 m 0,0,1
 867 1147 867 1147 1004 991 c 128,-1,2
 1141 835 1141 835 1141 559 c 0,3,4
 1141 284 1141 284 1004 127.5 c 128,-1,5
 867 -29 867 -29 627 -29 c 0,6,7
 386 -29 386 -29 249.5 127.5 c 128,-1,8
 113 284 113 284 113 559 c 0,9,10
 113 835 113 835 249.5 991 c 128,-1,11
 386 1147 386 1147 627 1147 c 0,0,1
516 82 m 1,12,13
 567 71 567 71 627 71 c 128,-1,14
 687 71 687 71 738 82 c 1,15,-1
 738 1036 l 1,16,17
 687 1047 687 1047 627 1047 c 128,-1,18
 567 1047 567 1047 516 1036 c 1,19,-1
 516 82 l 1,12,13
416 119 m 1,20,-1
 416 999 l 1,21,22
 364 970 364 970 325 925 c 0,23,24
 213 797 213 797 213 559 c 128,-1,25
 213 321 213 321 325 193 c 0,26,27
 364 148 364 148 416 119 c 1,20,-1
838 998 m 1,28,-1
 838 120 l 1,29,30
 889 148 889 148 929 193 c 0,31,32
 1041 322 1041 322 1041 559.5 c 128,-1,33
 1041 797 1041 797 929 925 c 0,34,35
 889 970 889 970 838 998 c 1,28,-1
EndSplineSet
EndChar

StartChar: p
Encoding: 112 112 520
Width: 1450
Flags: W
LayerCount: 2
Fore
SplineSet
447 168 m 1,0,-1
 447 -426 l 1,1,-1
 113 -426 l 1,2,-1
 113 1118 l 1,3,-1
 447 1118 l 1,4,-1
 447 950 l 1,5,6
 505 1050 505 1050 593.5 1098.5 c 128,-1,7
 682 1147 682 1147 806 1147 c 0,8,9
 1009 1147 1009 1147 1136.5 985 c 128,-1,10
 1264 823 1264 823 1264 559 c 0,11,12
 1264 295 1264 295 1136.5 133 c 128,-1,13
 1009 -29 1009 -29 806 -29 c 0,14,15
 682 -29 682 -29 593.5 19.5 c 128,-1,16
 505 68 505 68 447 168 c 1,0,-1
1155 490 m 0,17,18
 1155 648 1155 648 1140 723 c 0,19,20
 1118 838 1118 838 1061 917 c 0,21,22
 1017 978 1017 978 957 1010 c 1,23,-1
 957 108 l 1,24,25
 1017 140 1017 140 1061 201 c 0,26,27
 1155 331 1155 331 1155 490 c 0,17,18
347 -326 m 1,28,-1
 347 1026 l 1,29,-1
 213 1026 l 1,30,-1
 213 -326 l 1,31,-1
 347 -326 l 1,28,-1
852 74 m 1,32,-1
 852 1044 l 1,33,34
 827 1047 827 1047 801 1047 c 0,35,36
 636 1047 636 1047 543 917 c 0,37,38
 448 787 448 787 448 628 c 0,39,40
 448 470 448 470 462 396 c 0,41,42
 484 280 484 280 561 176 c 0,43,44
 636 71 636 71 801 71 c 0,45,46
 827 71 827 71 852 74 c 1,32,-1
EndSplineSet
EndChar

StartChar: q
Encoding: 113 113 521
Width: 1450
Flags: W
LayerCount: 2
Fore
SplineSet
930 168 m 1,0,-1
 872 68 872 68 783.5 19.5 c 128,-1,16
 695 -29 695 -29 571 -29 c 0,14,15
 368 -29 368 -29 240.5 133 c 128,-1,13
 113 295 113 295 113 559 c 128,-1,12
 113 823 113 823 240.5 985 c 128,-1,10
 368 1147 368 1147 571 1147 c 0,8,9
 695 1147 695 1147 783.5 1098.5 c 128,-1,7
 872 1050 872 1050 930 950 c 1,5,6
 930 1118 l 1,4,-1
 1264 1118 l 1,3,-1
 1264 -426 l 1,2,-1
 930 -426 l 1,1,-1
 930 168 l 1,0,-1
222 490 m 0,17,18
 222 331 222 331 316 201 c 0,26,27
 360 140 360 140 420 108 c 1,24,25
 420 1010 l 1,23,-1
 360 978 360 978 316 917 c 0,21,22
 259 838 259 838 237 723 c 0,19,20
 222 648 222 648 222 490 c 0,17,18
1030 -326 m 1,28,-1
 1164 -326 l 1,31,-1
 1164 1026 l 1,30,-1
 1030 1026 l 1,29,-1
 1030 -326 l 1,28,-1
525 74 m 1,32,-1
 550 71 550 71 576 71 c 0,45,46
 741 71 741 71 816 176 c 0,43,44
 893 280 893 280 915 396 c 0,41,42
 929 470 929 470 929 628 c 0,39,40
 929 787 929 787 834 917 c 0,37,38
 741 1047 741 1047 576 1047 c 0,35,36
 550 1047 550 1047 525 1044 c 1,33,34
 525 74 l 1,32,-1
EndSplineSet
EndChar

StartChar: r
Encoding: 114 114 522
Width: 991
Flags: W
LayerCount: 2
Fore
SplineSet
286 1020 m 1,0,-1
 286 100 l 1,1,-1
 420 100 l 1,2,-1
 420 1020 l 1,3,-1
 286 1020 l 1,0,-1
186 1120 m 1,4,-1
 520 1120 l 1,5,-1
 520 946 l 1,6,7
 578 1048 578 1048 671 1097.5 c 128,-1,8
 764 1147 764 1147 897 1147 c 0,9,10
 924 1147 924 1147 939 1144 c 0,11,-1
 991 1137 l 25,12,-1
 991 1004 l 1,13,14
 960 1022 960 1022 923.5 1030.5 c 128,-1,15
 887 1039 887 1039 843 1039 c 0,16,17
 687 1039 687 1039 603.5 937.5 c 128,-1,18
 520 836 520 836 520 646 c 2,19,-1
 520 0 l 1,20,-1
 186 0 l 1,21,-1
 186 1120 l 1,4,-1
EndSplineSet
EndChar

StartChar: s
Encoding: 115 115 523
Width: 1067
Flags: W
LayerCount: 2
Fore
SplineSet
361 1017 m 1,0,1
 322 1002 322 1002 294 979 c 0,2,3
 219 918 219 918 219 800 c 0,4,5
 219 698 219 698 257 650 c 0,6,7
 296 599 296 599 409 565 c 2,8,-1
 461 549 l 2,9,10
 626 498 626 498 687 439 c 0,11,12
 753 375 753 375 753 252 c 0,13,14
 753 170 753 170 716 107 c 1,15,16
 753 123 753 123 782 146 c 0,17,18
 867 212 867 212 867 327 c 0,19,20
 867 435 867 435 824 486 c 0,21,22
 778 541 778 541 646 580 c 2,23,-1
 595 595 l 2,24,25
 451 637 451 637 394 692 c 0,26,27
 323 759 323 759 323 870 c 0,28,29
 323 954 323 954 361 1017 c 1,0,1
112 184 m 17,30,31
 195 129 195 129 275 101 c 128,-1,32
 355 73 355 73 434 73 c 0,33,34
 540 73 540 73 596.5 120 c 128,-1,35
 653 167 653 167 653 252 c 0,36,37
 653 330 653 330 615 369.5 c 128,-1,38
 577 409 577 409 432 453 c 2,39,-1
 380 469 l 2,40,41
 237 513 237 513 178 588.5 c 128,-1,42
 119 664 119 664 119 800 c 24,43,44
 119 966 119 966 231 1056.5 c 128,-1,45
 343 1147 343 1147 549 1147 c 0,46,47
 651 1147 651 1147 741 1131 c 128,-1,48
 831 1115 831 1115 907 1084 c 1,49,-1
 907 962 l 1,50,51
 833 1011 833 1011 787 1029 c 128,-1,52
 741 1047 741 1047 646 1047 c 0,53,54
 535 1047 535 1047 479 1002.5 c 128,-1,55
 423 958 423 958 423 870 c 0,56,57
 423 802 423 802 463 764 c 128,-1,58
 503 726 503 726 623 691 c 2,59,-1
 674 676 l 2,60,61
 835 629 835 629 901 550 c 128,-1,62
 967 471 967 471 967 327 c 0,63,64
 967 163 967 163 843.5 67 c 128,-1,65
 720 -29 720 -29 504 -29 c 0,66,67
 414 -29 414 -29 316.5 -10.5 c 128,-1,68
 219 8 219 8 111 45 c 9,69,-1
 112 184 l 17,30,31
EndSplineSet
EndChar

StartChar: t
Encoding: 116 116 524
Width: 953
Flags: W
LayerCount: 2
Fore
SplineSet
464 106 m 1,0,1
 422 191 422 191 425 315 c 2,2,-1
 425 1338 l 1,3,-1
 290 1338 l 1,4,-1
 290 369 l 2,5,6
 289 196 289 196 335 157 c 128,-1,8
 381 118 381 118 464 106 c 1,0,1
525 1438 m 1,9,-1
 525 1098 l 1,10,-1
 904 1098 l 1,11,-1
 904 998 l 1,12,-1
 525 998 l 1,13,-1
 525 315 l 2,14,15
 525 178 525 178 562.5 139 c 128,-1,16
 600 100 600 100 715 100 c 2,17,-1
 904 100 l 1,18,-1
 904 0 l 1,19,-1
 565 0 l 2,20,21
 352 0 352 0 271 79.5 c 128,-1,22
 190 159 190 159 190 369 c 2,23,-1
 190 998 l 1,24,-1
 55 998 l 1,25,-1
 55 1098 l 1,26,-1
 190 1098 l 1,27,-1
 190 1438 l 1,28,-1
 525 1438 l 1,9,-1
EndSplineSet
EndChar

StartChar: u
Encoding: 117 117 525
Width: 1514
Flags: W
LayerCount: 2
Fore
SplineSet
505 83 m 1,0,1
 496 94 496 94 488 106 c 0,2,3
 417 210 417 210 417 400 c 2,4,-1
 417 1020 l 1,5,-1
 277 1020 l 1,6,-1
 277 444 l 2,7,8
 277 251 277 251 360 160 c 0,9,10
 413 102 413 102 505 83 c 1,0,1
1248 100 m 1,11,-1
 1248 1020 l 1,12,-1
 1113 1020 l 1,13,-1
 1113 100 l 1,14,-1
 1248 100 l 1,11,-1
1348 0 m 1,15,-1
 1008 0 l 1,16,-1
 1008 174 l 1,17,18
 935 73 935 73 836 23 c 128,-1,19
 737 -27 737 -27 608 -27 c 0,20,21
 396 -27 396 -27 286.5 92.5 c 128,-1,22
 177 212 177 212 177 444 c 2,23,-1
 177 1120 l 1,24,-1
 517 1120 l 1,25,-1
 517 400 l 2,26,27
 517 241 517 241 570.5 162 c 128,-1,28
 624 83 624 83 731 83 c 0,29,30
 859 83 859 83 933.5 178 c 128,-1,31
 1008 273 1008 273 1008 437 c 2,32,-1
 1008 1120 l 1,33,-1
 1348 1120 l 1,34,-1
 1348 0 l 1,15,-1
EndSplineSet
EndChar

StartChar: v
Encoding: 118 118 526
Width: 1244
Flags: W
LayerCount: 2
Fore
SplineSet
205 1020 m 1,0,-1
 550 100 l 1,1,-1
 681 100 l 1,2,-1
 332 1020 l 1,3,-1
 205 1020 l 1,0,-1
61 1120 m 1,4,-1
 401 1120 l 1,5,-1
 751 180 l 1,6,-1
 1101 1120 l 1,7,-1
 1201 1120 l 1,8,-1
 781 0 l 1,9,-1
 481 0 l 1,10,-1
 61 1120 l 1,4,-1
EndSplineSet
EndChar

StartChar: w
Encoding: 119 119 527
Width: 1864
Flags: W
LayerCount: 2
Fore
SplineSet
1009 1020 m 1,0,-1
 1249 100 l 1,1,-1
 1384 100 l 1,2,-1
 1142 1020 l 1,3,-1
 1009 1020 l 1,0,-1
216 1020 m 1,4,-1
 456 100 l 1,5,-1
 591 100 l 1,6,-1
 349 1020 l 1,7,-1
 216 1020 l 1,4,-1
86 1120 m 1,8,-1
 426 1120 l 1,9,-1
 656 246 l 1,10,-1
 885 1120 l 1,11,-1
 1219 1120 l 1,12,-1
 1449 246 l 1,13,-1
 1678 1120 l 1,14,-1
 1778 1120 l 1,15,-1
 1485 0 l 1,16,-1
 1175 0 l 1,17,-1
 934 918 l 1,18,-1
 692 0 l 1,19,-1
 379 0 l 1,20,-1
 86 1120 l 1,8,-1
EndSplineSet
EndChar

StartChar: x
Encoding: 120 120 528
Width: 1384
Flags: W
AnchorPoint: "below" 692 0 basechar 0
AnchorPoint: "above" 692 1147 basechar 0
LayerCount: 2
Fore
SplineSet
275 1020 m 1,0,-1
 958 100 l 1,1,-1
 1109 100 l 1,2,-1
 426 1020 l 1,3,-1
 275 1020 l 1,0,-1
76 1120 m 1,4,-1
 476 1120 l 1,5,-1
 761 737 l 1,6,-1
 1046 1120 l 1,7,-1
 1170 1120 l 1,8,-1
 823 653 l 1,9,-1
 1308 0 l 1,10,-1
 908 0 l 1,11,-1
 623 383 l 1,12,-1
 338 0 l 1,13,-1
 214 0 l 1,14,-1
 561 467 l 1,15,-1
 76 1120 l 1,4,-1
EndSplineSet
EndChar

StartChar: y
Encoding: 121 121 529
Width: 1279
Flags: W
LayerCount: 2
Fore
SplineSet
210 1020 m 1,0,-1
 644 -41 l 1,1,-1
 706 112 l 1,2,-1
 343 1020 l 1,3,-1
 210 1020 l 1,0,-1
61 1120 m 1,4,-1
 411 1120 l 1,5,-1
 760 247 l 1,6,-1
 1111 1120 l 1,7,-1
 1219 1120 l 1,8,-1
 727 -104 l 2,9,10
 647 -303 647 -303 574 -364.5 c 128,-1,11
 501 -426 501 -426 377 -426 c 2,12,-1
 230 -426 l 1,13,-1
 230 -326 l 1,14,-1
 377 -326 l 2,15,16
 465 -326 465 -326 505.5 -292.5 c 128,-1,17
 546 -259 546 -259 589 -170 c 1,18,-1
 61 1120 l 1,4,-1
EndSplineSet
EndChar

StartChar: z
Encoding: 122 122 530
Width: 1208
Flags: W
AnchorPoint: "below" 604 0 basechar 0
AnchorPoint: "above" 604 1147 basechar 0
LayerCount: 2
Fore
SplineSet
860 1020 m 1,0,-1
 210 100 l 1,1,-1
 350 100 l 1,2,-1
 1000 1020 l 1,3,-1
 860 1020 l 1,0,-1
113 1120 m 1,4,-1
 1122 1120 l 1,5,-1
 1122 1020 l 1,6,-1
 473 100 l 1,7,-1
 1122 100 l 1,8,-1
 1122 0 l 1,9,-1
 88 0 l 1,10,-1
 88 100 l 1,11,-1
 737 1020 l 1,12,-1
 113 1020 l 1,13,-1
 113 1120 l 1,4,-1
EndSplineSet
EndChar

StartChar: zero
Encoding: 48 48 531
Width: 1303
Flags: W
AnchorPoint: "above" 651 1520 basechar 0
AnchorPoint: "below" 651 0 basechar 0
LayerCount: 2
Fore
SplineSet
651 1520 m 128,-1,1
 902 1520 902 1520 1035 1321.5 c 128,-1,2
 1168 1123 1168 1123 1168 745.5 c 128,-1,3
 1168 368 1168 368 1035 169.5 c 128,-1,4
 902 -29 902 -29 651 -29 c 128,-1,5
 400 -29 400 -29 268 169.5 c 128,-1,6
 136 368 136 368 136 745.5 c 128,-1,7
 136 1123 136 1123 268 1321.5 c 128,-1,0
 400 1520 400 1520 651 1520 c 128,-1,1
864 134 m 1,8,9
 1068 277 1068 277 1068 745 c 0,10,11
 1068 1214 1068 1214 864 1357 c 1,12,-1
 864 134 l 1,8,9
764 1405 m 1,13,14
 713 1420 713 1420 651.5 1420 c 128,-1,15
 590 1420 590 1420 538 1405 c 1,16,-1
 538 86 l 1,17,18
 590 71 590 71 651.5 71 c 128,-1,19
 713 71 713 71 764 86 c 1,20,-1
 764 1405 l 1,13,14
438 1357 m 1,21,22
 236 1213 236 1213 236 745 c 0,23,24
 236 278 236 278 438 134 c 1,25,-1
 438 1357 l 1,21,22
EndSplineSet
EndChar

StartChar: one
Encoding: 49 49 532
Width: 1303
Flags: W
AnchorPoint: "above" 651 1520 basechar 0
AnchorPoint: "below" 651 0 basechar 0
LayerCount: 2
Fore
SplineSet
566 1393 m 1,0,-1
 566 100 l 1,1,-1
 768 100 l 1,2,-1
 768 1393 l 1,3,-1
 566 1393 l 1,0,-1
866 1493 m 17,4,-1
 866 100 l 1,5,-1
 1196 100 l 1,6,-1
 1196 0 l 1,7,-1
 136 0 l 1,8,-1
 136 100 l 1,9,-1
 466 100 l 1,10,-1
 466 1393 l 1,11,-1
 107 1321 l 1,12,-1
 107 1421 l 1,13,-1
 466 1493 l 9,14,-1
 866 1493 l 17,4,-1
EndSplineSet
EndChar

StartChar: two
Encoding: 50 50 533
Width: 1303
Flags: W
AnchorPoint: "below" 631 0 basechar 0
AnchorPoint: "above" 631 1520 basechar 0
LayerCount: 2
Fore
SplineSet
251 100 m 1,0,-1
 507 100 l 1,1,-1
 804 561 l 2,2,3
 900 710 900 710 934 774 c 0,4,5
 1010 917 1010 917 1010 1073.5 c 128,-1,6
 1010 1230 1010 1230 902 1322 c 0,7,8
 834 1379 834 1379 736 1403 c 1,9,-1
 739 1399 l 1,10,11
 829 1287 829 1287 829 1119 c 0,12,13
 829 1019 829 1019 794.5 926 c 128,-1,14
 760 833 760 833 695 729.5 c 128,-1,15
 630 626 630 626 421 335 c 1,16,-1
 251 100 l 1,0,-1
140 1416 m 1,17,18
 399 1520 399 1520 580 1520 c 0,19,20
 823 1520 823 1520 966.5 1398 c 128,-1,21
 1110 1276 1110 1276 1110 1072 c 24,22,23
 1110 974 1110 974 1086 888 c 128,-1,24
 1062 802 1062 802 1021.5 727 c 128,-1,25
 981 652 981 652 888 507 c 2,26,-1
 626 100 l 1,27,-1
 1178 100 l 1,28,-1
 1178 0 l 1,29,-1
 130 0 l 1,30,-1
 131 100 l 1,31,32
 133 105 133 105 340 393.5 c 128,-1,33
 547 682 547 682 608 780 c 0,34,35
 729 971 729 971 729 1111.5 c 128,-1,36
 729 1252 729 1252 661.5 1336 c 128,-1,37
 594 1420 594 1420 485 1420 c 0,38,39
 333 1420 333 1420 140 1271 c 1,40,-1
 140 1416 l 1,17,18
EndSplineSet
EndChar

StartChar: three
Encoding: 51 51 534
Width: 1303
Flags: W
AnchorPoint: "above" 651 1520 basechar 0
AnchorPoint: "below" 651 0 basechar 0
LayerCount: 2
Fore
SplineSet
555 -29 m 0,0,1
 368 -29 368 -29 156 45 c 1,2,-1
 156 151 l 1,3,-1
 189 139 l 1,4,5
 385 71 385 71 555 71 c 0,6,7
 656 71 656 71 735 87 c 1,8,-1
 735 748 l 1,9,10
 681 758 681 758 618 758 c 2,11,-1
 414 758 l 1,12,-1
 414 858 l 1,13,-1
 626 858 l 2,14,15
 685 858 685 858 735 866 c 1,16,-1
 735 1410 l 1,17,18
 677 1420 677 1420 601 1420 c 0,19,20
 445 1420 445 1420 228 1360 c 1,21,-1
 201 1352 l 1,22,-1
 201 1456 l 1,23,24
 431 1520 431 1520 606 1520 c 0,25,26
 836 1520 836 1520 970 1415.5 c 128,-1,27
 1104 1311 1104 1311 1104 1133 c 0,28,29
 1104 1009 1104 1009 1033.5 924 c 128,-1,30
 963 839 963 839 835 806 c 1,31,32
 977 775 977 775 1058 676.5 c 128,-1,33
 1139 578 1139 578 1139 434 c 0,34,35
 1139 213 1139 213 987 92 c 128,-1,36
 835 -29 835 -29 555 -29 c 0,0,1
835 117 m 1,37,38
 1039 202 1039 202 1039 434 c 0,39,40
 1039 542 1039 542 980.5 612.5 c 128,-1,41
 922 683 922 683 835 719 c 1,42,-1
 835 117 l 1,37,38
835 1381 m 1,43,-1
 835 895 l 1,44,45
 904 924 904 924 954 984.5 c 128,-1,46
 1004 1045 1004 1045 1004 1133 c 0,47,48
 1004 1305 1004 1305 835 1381 c 1,43,-1
EndSplineSet
EndChar

StartChar: four
Encoding: 52 52 535
Width: 1303
Flags: W
AnchorPoint: "below" 651 0 basechar 0
AnchorPoint: "above" 651 1520 basechar 0
LayerCount: 2
Fore
SplineSet
935 1393 m 1,0,-1
 732 1393 l 1,1,-1
 735 100 l 1,2,-1
 935 100 l 1,3,-1
 935 1393 l 1,0,-1
635 1317 m 1,4,-1
 204 520 l 1,5,-1
 635 520 l 1,6,-1
 635 1317 l 1,4,-1
632 1493 m 1,7,-1
 1035 1493 l 1,8,-1
 1035 520 l 1,9,-1
 1208 520 l 1,10,-1
 1208 420 l 1,11,-1
 1035 420 l 1,12,-1
 1035 0 l 1,13,-1
 635 0 l 1,14,-1
 635 420 l 1,15,-1
 90 420 l 1,16,-1
 90 547 l 1,17,-1
 632 1493 l 1,7,-1
EndSplineSet
EndChar

StartChar: five
Encoding: 53 53 536
Width: 1303
Flags: W
AnchorPoint: "above" 651 1520 basechar 0
AnchorPoint: "below" 651 0 basechar 0
LayerCount: 2
Fore
SplineSet
511 913 m 1,0,-1
 511 1393 l 1,1,-1
 311 1393 l 1,2,-1
 311 878 l 1,3,4
 414 905 414 905 511 913 c 1,0,-1
852 111 m 1,5,6
 1056 203 1056 203 1056 441 c 128,-1,7
 1056 679 1056 679 852 775 c 1,8,-1
 852 111 l 1,5,6
752 80 m 1,9,-1
 752 807 l 1,10,11
 703 817 703 817 597 817 c 0,12,13
 417 817 417 817 211 742 c 1,14,-1
 211 1493 l 1,15,-1
 1054 1493 l 1,16,-1
 1054 1393 l 1,17,-1
 611 1393 l 1,18,-1
 611 916 l 1,19,20
 884 907 884 907 1024 784.5 c 128,-1,21
 1164 662 1164 662 1164 441 c 128,-1,22
 1164 220 1164 220 1014 95.5 c 128,-1,23
 864 -29 864 -29 541 -29 c 0,24,25
 356 -29 356 -29 148 31 c 1,26,-1
 148 167 l 1,27,28
 337 67 337 67 557 67 c 0,29,30
 686 67 686 67 752 80 c 1,9,-1
EndSplineSet
EndChar

StartChar: six
Encoding: 54 54 537
Width: 1303
Flags: W
AnchorPoint: "above" 651 1520 basechar 0
AnchorPoint: "below" 651 0 basechar 0
LayerCount: 2
Fore
SplineSet
892 112 m 1,0,1
 1094 211 1094 211 1094 479 c 0,2,3
 1094 759 1094 759 892 851 c 1,4,-1
 892 112 l 1,0,1
418 1309 m 1,5,6
 213 1130 213 1130 213 763 c 0,7,8
 213 286 213 286 418 137 c 1,9,-1
 418 1309 l 1,5,6
518 87 m 1,10,11
 576 71 576 71 661.5 71 c 128,-1,12
 747 71 747 71 792 79 c 1,13,-1
 792 881 l 1,14,15
 752 887 752 887 666.5 887 c 128,-1,16
 581 887 581 887 518 868 c 1,17,-1
 518 87 l 1,10,11
762 1520 m 0,18,19
 929 1520 929 1520 1097 1460 c 1,20,-1
 1097 1354 l 1,21,-1
 1063 1366 l 2,22,23
 910 1420 910 1420 761 1420 c 128,-1,24
 612 1420 612 1420 518 1375 c 1,25,-1
 518 965 l 1,26,27
 584 987 584 987 688 987 c 0,28,29
 933 987 933 987 1063.5 850.5 c 128,-1,30
 1194 714 1194 714 1194 481.5 c 128,-1,31
 1194 249 1194 249 1058 110 c 128,-1,32
 922 -29 922 -29 676 -29 c 0,33,34
 387 -29 387 -29 250 169.5 c 128,-1,35
 113 368 113 368 113 733.5 c 128,-1,36
 113 1099 113 1099 281 1309.5 c 128,-1,37
 449 1520 449 1520 762 1520 c 0,18,19
EndSplineSet
EndChar

StartChar: seven
Encoding: 55 55 538
Width: 1303
Flags: W
AnchorPoint: "above" 651 1520 basechar 0
AnchorPoint: "below" 651 0 basechar 0
LayerCount: 2
Fore
SplineSet
917 1393 m 1,0,-1
 418 100 l 1,1,-1
 632 100 l 1,2,-1
 1131 1393 l 1,3,-1
 917 1393 l 1,0,-1
65 1493 m 1,4,-1
 1238 1493 l 1,5,-1
 1238 1393 l 1,6,-1
 701 0 l 9,7,-1
 272 0 l 17,8,-1
 810 1393 l 25,9,-1
 65 1393 l 1,10,-1
 65 1493 l 1,4,-1
EndSplineSet
EndChar

StartChar: eight
Encoding: 56 56 539
Width: 1303
Flags: W
AnchorPoint: "above" 651 1520 basechar 0
AnchorPoint: "below" 651 0 basechar 0
LayerCount: 2
Fore
SplineSet
856 100 m 1,0,1
 1065 174 1065 174 1058 408 c 0,2,3
 1051 636 1051 636 856 714 c 1,4,-1
 856 100 l 1,0,1
274 1133 m 128,-1,6
 274 1001 274 1001 369 924 c 0,7,8
 402 897 402 897 446 879 c 1,9,-1
 446 1387 l 1,10,11
 402 1369 402 1369 370 1342 c 1,12,5
 274 1265 274 1265 274 1133 c 128,-1,6
446 794 m 1,13,-1
 446 796 l 1,14,15
 318 828 318 828 246 916.5 c 128,-1,16
 174 1005 174 1005 174 1133 c 0,17,18
 174 1312 174 1312 301.5 1416 c 128,-1,19
 429 1520 429 1520 651.5 1520 c 128,-1,20
 874 1520 874 1520 1001 1416 c 128,-1,21
 1128 1312 1128 1312 1128 1133 c 0,22,23
 1128 1005 1128 1005 1056 916.5 c 128,-1,24
 984 828 984 828 856 796 c 1,25,-1
 856 795 l 1,26,27
 1001 760 1001 760 1082 661.5 c 128,-1,28
 1163 563 1163 563 1163 420 c 0,29,30
 1163 203 1163 203 1030.5 87 c 128,-1,31
 898 -29 898 -29 651 -29 c 128,-1,32
 404 -29 404 -29 271.5 87 c 128,-1,33
 139 203 139 203 139 420 c 0,34,35
 139 563 139 563 220.5 661.5 c 128,-1,36
 302 760 302 760 446 794 c 1,13,-1
446 100 m 1,37,-1
 446 714 l 1,38,39
 251 636 251 636 244 408 c 0,40,41
 237 174 237 174 446 100 c 1,37,-1
546 77 m 1,42,43
 595 71 595 71 651 71 c 128,-1,44
 707 71 707 71 756 77 c 1,45,-1
 756 739 l 1,46,47
 707 746 707 746 651 746 c 128,-1,48
 595 746 595 746 546 739 c 1,49,-1
 546 77 l 1,42,43
546 1413 m 1,50,-1
 546 853 l 1,51,52
 594 846 594 846 651 846 c 128,-1,53
 708 846 708 846 756 853 c 1,54,-1
 756 1413 l 1,55,56
 708 1420 708 1420 651 1420 c 128,-1,57
 594 1420 594 1420 546 1413 c 1,50,-1
856 1387 m 1,58,-1
 856 879 l 1,59,60
 900 897 900 897 932 924 c 1,61,62
 1028 1001 1028 1001 1028 1133 c 128,-1,63
 1028 1265 1028 1265 933 1342 c 0,64,65
 900 1369 900 1369 856 1387 c 1,58,-1
EndSplineSet
EndChar

StartChar: nine
Encoding: 57 57 540
Width: 1300
Flags: W
AnchorPoint: "below" 651 0 basechar 0
AnchorPoint: "above" 651 1520 basechar 0
LayerCount: 2
Fore
SplineSet
408 1379 m 1,0,1
 206 1280 206 1280 206 1012 c 0,2,3
 206 732 206 732 408 640 c 1,4,-1
 408 1379 l 1,0,1
882 182 m 1,5,6
 1087 361 1087 361 1087 728 c 0,7,8
 1087 1205 1087 1205 882 1354 c 1,9,-1
 882 182 l 1,5,6
782 1404 m 1,10,11
 724 1420 724 1420 638.5 1420 c 128,-1,12
 553 1420 553 1420 508 1412 c 1,13,-1
 508 610 l 1,14,15
 548 604 548 604 633.5 604 c 128,-1,16
 719 604 719 604 782 623 c 1,17,-1
 782 1404 l 1,10,11
538 -29 m 0,18,19
 371 -29 371 -29 203 31 c 1,20,-1
 203 137 l 1,21,-1
 237 125 l 2,22,23
 390 71 390 71 539 71 c 128,-1,24
 688 71 688 71 782 116 c 1,25,-1
 782 526 l 1,26,27
 716 504 716 504 612 504 c 0,28,29
 367 504 367 504 236.5 640.5 c 128,-1,30
 106 777 106 777 106 1009.5 c 128,-1,31
 106 1242 106 1242 242 1381 c 128,-1,32
 378 1520 378 1520 624 1520 c 0,33,34
 913 1520 913 1520 1050 1321.5 c 128,-1,35
 1187 1123 1187 1123 1187 757.5 c 128,-1,36
 1187 392 1187 392 1019 181.5 c 128,-1,37
 851 -29 851 -29 538 -29 c 0,18,19
EndSplineSet
EndChar

